<svg width="1219" height="752" viewBox="0 0 1219 752" fill="none" xmlns="http://www.w3.org/2000/svg">
<g clip-path="url(#clip0_3301_12451)">
<g opacity="0.9" filter="url(#filter0_f_3301_12451)">
<path d="M1142.36 148.544C1142.36 150.075 1141.12 151.317 1139.59 151.317C1100.06 151.317 1068.02 183.358 1068.02 222.884C1068.02 224.415 1066.78 225.656 1065.25 225.656C1063.72 225.656 1062.47 224.415 1062.47 222.884C1062.47 183.358 1030.43 151.317 990.907 151.317C989.376 151.317 988.135 150.075 988.135 148.544C988.135 147.012 989.376 145.771 990.907 145.771C1030.43 145.771 1062.47 113.729 1062.47 74.2039C1062.47 72.6726 1063.72 71.4314 1065.25 71.4314C1066.78 71.4314 1068.02 72.6726 1068.02 74.2039L1068.03 75.1296C1068.52 114.228 1100.37 145.771 1139.59 145.771C1141.12 145.771 1142.36 147.012 1142.36 148.544Z" stroke="#82BAE9" stroke-width="3" stroke-linejoin="round"/>
</g>
<g opacity="0.9" filter="url(#filter1_f_3301_12451)">
<path d="M991.135 148.544C991.135 150.075 989.894 151.317 988.363 151.317C948.838 151.317 916.795 183.358 916.795 222.884C916.795 224.415 915.554 225.656 914.023 225.656C912.492 225.656 911.25 224.415 911.25 222.884C911.25 183.358 879.208 151.317 839.683 151.317C838.152 151.317 836.911 150.075 836.911 148.544C836.911 147.012 838.152 145.771 839.683 145.771C879.208 145.771 911.25 113.729 911.25 74.2039C911.25 72.6726 912.492 71.4314 914.023 71.4314C915.554 71.4314 916.795 72.6726 916.795 74.2039L916.801 75.1296C917.297 114.228 949.147 145.771 988.363 145.771C989.894 145.771 991.135 147.012 991.135 148.544Z" stroke="#82BAE9" stroke-width="3" stroke-linejoin="round"/>
</g>
<g opacity="0.9" filter="url(#filter2_f_3301_12451)">
<path d="M537.602 148.544C537.602 150.075 536.361 151.317 534.83 151.317C495.305 151.317 463.262 183.358 463.262 222.884C463.262 224.415 462.021 225.656 460.49 225.656C458.958 225.656 457.717 224.415 457.716 222.884C457.716 183.358 425.675 151.317 386.15 151.317C384.619 151.317 383.377 150.075 383.377 148.544C383.377 147.012 384.619 145.771 386.15 145.771C425.675 145.771 457.716 113.729 457.716 74.2039C457.717 72.6726 458.958 71.4314 460.49 71.4314C462.021 71.4314 463.262 72.6726 463.262 74.2039L463.268 75.1296C463.763 114.228 495.613 145.771 534.83 145.771C536.361 145.771 537.602 147.012 537.602 148.544Z" stroke="#82BAE9" stroke-width="3" stroke-linejoin="round"/>
</g>
<g opacity="0.9" filter="url(#filter3_f_3301_12451)">
<path d="M839.91 148.544C839.91 150.075 838.668 151.317 837.137 151.317C797.612 151.317 765.57 183.358 765.57 222.884C765.57 224.415 764.329 225.656 762.797 225.656C761.266 225.656 760.024 224.415 760.024 222.884C760.024 183.358 727.983 151.317 688.458 151.317C686.926 151.317 685.685 150.075 685.685 148.544C685.685 147.012 686.926 145.771 688.458 145.771C727.983 145.771 760.024 113.729 760.024 74.2039C760.024 72.6726 761.266 71.4314 762.797 71.4314C764.329 71.4314 765.57 72.6726 765.57 74.2039L765.576 75.1296C766.071 114.228 797.921 145.771 837.137 145.771C838.668 145.771 839.91 147.012 839.91 148.544Z" stroke="#82BAE9" stroke-width="3" stroke-linejoin="round"/>
</g>
<g opacity="0.9" filter="url(#filter4_f_3301_12451)">
<path d="M386.377 148.544C386.377 150.075 385.136 151.317 383.604 151.317C344.079 151.317 312.037 183.358 312.037 222.884C312.037 224.415 310.796 225.656 309.265 225.656C307.733 225.656 306.491 224.415 306.491 222.884C306.491 183.358 274.45 151.317 234.925 151.317C233.394 151.317 232.152 150.075 232.152 148.544C232.152 147.012 233.394 145.771 234.925 145.771C274.45 145.771 306.491 113.729 306.491 74.2039C306.491 72.6726 307.733 71.4314 309.265 71.4314C310.796 71.4314 312.037 72.6726 312.037 74.2039L312.043 75.1296C312.538 114.228 344.388 145.771 383.604 145.771C385.136 145.771 386.377 147.012 386.377 148.544Z" stroke="#82BAE9" stroke-width="3" stroke-linejoin="round"/>
</g>
<g opacity="0.9" filter="url(#filter5_f_3301_12451)">
<path d="M688.686 148.544C688.686 150.075 687.444 151.317 685.913 151.317C646.388 151.317 614.346 183.358 614.346 222.884C614.346 224.415 613.105 225.656 611.573 225.656C610.042 225.656 608.8 224.415 608.8 222.884C608.8 183.358 576.758 151.317 537.233 151.317C535.702 151.317 534.461 150.075 534.461 148.544C534.461 147.012 535.702 145.771 537.233 145.771C576.758 145.771 608.8 113.729 608.8 74.2039C608.8 72.6726 610.042 71.4314 611.573 71.4314C613.105 71.4314 614.345 72.6726 614.346 74.2039L614.352 75.1296C614.847 114.228 646.697 145.771 685.913 145.771C687.444 145.771 688.686 147.012 688.686 148.544Z" stroke="#82BAE9" stroke-width="3" stroke-linejoin="round"/>
</g>
<g opacity="0.9" filter="url(#filter6_f_3301_12451)">
<path d="M235.152 148.544C235.152 150.075 233.911 151.317 232.38 151.317C192.855 151.317 160.813 183.358 160.813 222.884C160.812 224.415 159.571 225.656 158.04 225.656C156.509 225.656 155.267 224.415 155.267 222.884C155.267 183.358 123.225 151.317 83.7002 151.317C82.1689 151.317 80.9277 150.075 80.9277 148.544C80.9278 147.012 82.1689 145.771 83.7002 145.771C123.225 145.771 155.267 113.729 155.267 74.2039C155.267 72.6726 156.509 71.4314 158.04 71.4314C159.571 71.4314 160.812 72.6726 160.813 74.2039L160.818 75.1296C161.314 114.228 193.164 145.771 232.38 145.771C233.911 145.771 235.152 147.012 235.152 148.544Z" stroke="#82BAE9" stroke-width="3" stroke-linejoin="round"/>
</g>
<g opacity="0.9" filter="url(#filter7_f_3301_12451)">
<path d="M1142.36 1.5437C1142.36 3.07499 1141.12 4.31688 1139.59 4.31714C1100.06 4.31714 1068.02 36.3585 1068.02 75.8835C1068.02 77.4148 1066.78 78.656 1065.25 78.656C1063.72 78.656 1062.47 77.4148 1062.47 75.8835C1062.47 36.3585 1030.43 4.31714 990.907 4.31715C989.376 4.31695 988.135 3.07504 988.135 1.54371C988.135 0.0124064 989.376 -1.22856 990.907 -1.22875C1030.43 -1.22875 1062.47 -33.2711 1062.47 -72.7961C1062.47 -74.3274 1063.72 -75.5686 1065.25 -75.5686C1066.78 -75.5686 1068.02 -74.3274 1068.02 -72.7961L1068.03 -71.8704C1068.52 -32.7717 1100.37 -1.22876 1139.59 -1.22876C1141.12 -1.2285 1142.36 0.0124412 1142.36 1.5437Z" stroke="#82BAE9" stroke-width="3" stroke-linejoin="round"/>
</g>
<g opacity="0.9" filter="url(#filter8_f_3301_12451)">
<path d="M991.135 1.5437C991.135 3.07499 989.894 4.31688 988.363 4.31714C948.838 4.31714 916.795 36.3585 916.795 75.8835C916.795 77.4148 915.554 78.656 914.023 78.656C912.492 78.656 911.25 77.4148 911.25 75.8835C911.25 36.3585 879.208 4.31714 839.683 4.31715C838.152 4.31695 836.911 3.07504 836.911 1.54371C836.911 0.0124064 838.152 -1.22856 839.683 -1.22875C879.208 -1.22875 911.25 -33.2711 911.25 -72.7961C911.25 -74.3274 912.492 -75.5686 914.023 -75.5686C915.554 -75.5686 916.795 -74.3274 916.795 -72.7961L916.801 -71.8704C917.297 -32.7717 949.147 -1.22876 988.363 -1.22876C989.894 -1.2285 991.135 0.0124412 991.135 1.5437Z" stroke="#82BAE9" stroke-width="3" stroke-linejoin="round"/>
</g>
<g opacity="0.9" filter="url(#filter9_f_3301_12451)">
<path d="M537.602 1.5437C537.602 3.07499 536.361 4.31688 534.83 4.31714C495.305 4.31714 463.262 36.3585 463.262 75.8835C463.262 77.4148 462.021 78.656 460.49 78.656C458.958 78.656 457.717 77.4148 457.716 75.8835C457.716 36.3585 425.675 4.31714 386.15 4.31715C384.619 4.31695 383.377 3.07504 383.377 1.54371C383.377 0.0124064 384.619 -1.22856 386.15 -1.22875C425.675 -1.22875 457.716 -33.2711 457.716 -72.7961C457.717 -74.3274 458.958 -75.5686 460.49 -75.5686C462.021 -75.5686 463.262 -74.3274 463.262 -72.7961L463.268 -71.8704C463.763 -32.7717 495.613 -1.22876 534.83 -1.22876C536.361 -1.2285 537.602 0.0124412 537.602 1.5437Z" stroke="#82BAE9" stroke-width="3" stroke-linejoin="round"/>
</g>
<g opacity="0.9" filter="url(#filter10_f_3301_12451)">
<path d="M839.91 1.5437C839.91 3.07499 838.668 4.31688 837.137 4.31714C797.612 4.31714 765.57 36.3585 765.57 75.8835C765.57 77.4148 764.329 78.656 762.797 78.656C761.266 78.656 760.024 77.4148 760.024 75.8835C760.024 36.3585 727.983 4.31714 688.458 4.31715C686.926 4.31695 685.685 3.07504 685.685 1.54371C685.685 0.0124064 686.926 -1.22856 688.458 -1.22875C727.983 -1.22875 760.024 -33.2711 760.024 -72.7961C760.024 -74.3274 761.266 -75.5686 762.797 -75.5686C764.329 -75.5686 765.57 -74.3274 765.57 -72.7961L765.576 -71.8704C766.071 -32.7717 797.921 -1.22876 837.137 -1.22876C838.668 -1.2285 839.91 0.0124412 839.91 1.5437Z" stroke="#82BAE9" stroke-width="3" stroke-linejoin="round"/>
</g>
<g opacity="0.9" filter="url(#filter11_f_3301_12451)">
<path d="M386.377 1.5437C386.377 3.07499 385.136 4.31688 383.604 4.31714C344.079 4.31714 312.037 36.3585 312.037 75.8835C312.037 77.4148 310.796 78.656 309.265 78.656C307.733 78.656 306.491 77.4148 306.491 75.8835C306.491 36.3585 274.45 4.31714 234.925 4.31715C233.394 4.31695 232.152 3.07504 232.152 1.54371C232.152 0.0124064 233.394 -1.22856 234.925 -1.22875C274.45 -1.22875 306.491 -33.2711 306.491 -72.7961C306.491 -74.3274 307.733 -75.5686 309.265 -75.5686C310.796 -75.5686 312.037 -74.3274 312.037 -72.7961L312.043 -71.8704C312.538 -32.7717 344.388 -1.22876 383.604 -1.22876C385.136 -1.2285 386.377 0.0124412 386.377 1.5437Z" stroke="#82BAE9" stroke-width="3" stroke-linejoin="round"/>
</g>
<g opacity="0.9" filter="url(#filter12_f_3301_12451)">
<path d="M688.686 1.5437C688.686 3.07499 687.444 4.31688 685.913 4.31714C646.388 4.31714 614.346 36.3585 614.346 75.8835C614.346 77.4148 613.105 78.656 611.573 78.656C610.042 78.656 608.8 77.4148 608.8 75.8835C608.8 36.3585 576.758 4.31714 537.233 4.31715C535.702 4.31695 534.461 3.07504 534.461 1.54371C534.461 0.0124064 535.702 -1.22856 537.233 -1.22875C576.758 -1.22875 608.8 -33.2711 608.8 -72.7961C608.8 -74.3274 610.042 -75.5686 611.573 -75.5686C613.105 -75.5686 614.345 -74.3274 614.346 -72.7961L614.352 -71.8704C614.847 -32.7717 646.697 -1.22876 685.913 -1.22876C687.444 -1.2285 688.686 0.0124412 688.686 1.5437Z" stroke="#82BAE9" stroke-width="3" stroke-linejoin="round"/>
</g>
<g opacity="0.9" filter="url(#filter13_f_3301_12451)">
<path d="M235.152 1.5437C235.152 3.07499 233.911 4.31688 232.38 4.31714C192.855 4.31714 160.813 36.3585 160.813 75.8835C160.812 77.4148 159.571 78.656 158.04 78.656C156.509 78.656 155.267 77.4148 155.267 75.8835C155.267 36.3585 123.225 4.31714 83.7002 4.31715C82.1689 4.31695 80.9277 3.07504 80.9277 1.54371C80.9278 0.0124064 82.1689 -1.22856 83.7002 -1.22875C123.225 -1.22875 155.267 -33.2711 155.267 -72.7961C155.267 -74.3274 156.509 -75.5686 158.04 -75.5686C159.571 -75.5686 160.812 -74.3274 160.813 -72.7961L160.818 -71.8704C161.314 -32.7717 193.164 -1.22876 232.38 -1.22876C233.911 -1.2285 235.152 0.0124412 235.152 1.5437Z" stroke="#82BAE9" stroke-width="3" stroke-linejoin="round"/>
</g>
<g opacity="0.9" filter="url(#filter14_f_3301_12451)">
<path d="M1142.36 299.769C1142.36 301.3 1141.12 302.542 1139.59 302.542C1100.06 302.542 1068.02 334.584 1068.02 374.109C1068.02 375.64 1066.78 376.881 1065.25 376.881C1063.72 376.881 1062.47 375.64 1062.47 374.109C1062.47 334.584 1030.43 302.542 990.907 302.542C989.376 302.542 988.135 301.3 988.135 299.769C988.135 298.238 989.376 296.997 990.907 296.996C1030.43 296.996 1062.47 264.954 1062.47 225.429C1062.47 223.898 1063.72 222.656 1065.25 222.656C1066.78 222.657 1068.02 223.898 1068.02 225.429L1068.03 226.355C1068.52 265.453 1100.37 296.996 1139.59 296.996C1141.12 296.997 1142.36 298.238 1142.36 299.769Z" stroke="#82BAE9" stroke-width="3" stroke-linejoin="round"/>
</g>
<g opacity="0.9" filter="url(#filter15_f_3301_12451)">
<path d="M991.135 299.768C991.135 301.299 989.894 302.541 988.363 302.541C948.838 302.541 916.795 334.583 916.795 374.108C916.795 375.639 915.554 376.88 914.023 376.88C912.492 376.88 911.25 375.639 911.25 374.108C911.25 334.583 879.208 302.541 839.683 302.541C838.152 302.541 836.911 301.299 836.911 299.768C836.911 298.237 838.152 296.996 839.683 296.995C879.208 296.995 911.25 264.953 911.25 225.428C911.25 223.897 912.492 222.656 914.023 222.656C915.554 222.656 916.795 223.897 916.795 225.428L916.801 226.354C917.297 265.452 949.147 296.995 988.363 296.995C989.894 296.996 991.135 298.237 991.135 299.768Z" stroke="#82BAE9" stroke-width="3" stroke-linejoin="round"/>
</g>
<g opacity="0.9" filter="url(#filter16_f_3301_12451)">
<path d="M537.602 299.768C537.602 301.299 536.361 302.541 534.83 302.541C495.305 302.541 463.262 334.583 463.262 374.108C463.262 375.639 462.021 376.88 460.49 376.88C458.958 376.88 457.717 375.639 457.716 374.108C457.716 334.583 425.675 302.541 386.15 302.541C384.619 302.541 383.377 301.299 383.377 299.768C383.377 298.237 384.619 296.996 386.15 296.995C425.675 296.995 457.716 264.953 457.716 225.428C457.717 223.897 458.958 222.656 460.49 222.656C462.021 222.656 463.262 223.897 463.262 225.428L463.268 226.354C463.763 265.452 495.613 296.995 534.83 296.995C536.361 296.996 537.602 298.237 537.602 299.768Z" stroke="#82BAE9" stroke-width="3" stroke-linejoin="round"/>
</g>
<g opacity="0.9" filter="url(#filter17_f_3301_12451)">
<path d="M839.91 299.768C839.91 301.299 838.668 302.541 837.137 302.541C797.612 302.541 765.57 334.583 765.57 374.108C765.57 375.639 764.329 376.88 762.797 376.88C761.266 376.88 760.024 375.639 760.024 374.108C760.024 334.583 727.983 302.541 688.458 302.541C686.926 302.541 685.685 301.299 685.685 299.768C685.685 298.237 686.926 296.996 688.458 296.995C727.983 296.995 760.024 264.953 760.024 225.428C760.024 223.897 761.266 222.656 762.797 222.656C764.329 222.656 765.57 223.897 765.57 225.428L765.576 226.354C766.071 265.452 797.921 296.995 837.137 296.995C838.668 296.996 839.91 298.237 839.91 299.768Z" stroke="#82BAE9" stroke-width="3" stroke-linejoin="round"/>
</g>
<g opacity="0.9" filter="url(#filter18_f_3301_12451)">
<path d="M386.377 299.768C386.377 301.299 385.136 302.541 383.604 302.541C344.079 302.541 312.037 334.583 312.037 374.108C312.037 375.639 310.796 376.88 309.265 376.88C307.733 376.88 306.491 375.639 306.491 374.108C306.491 334.583 274.45 302.541 234.925 302.541C233.394 302.541 232.152 301.299 232.152 299.768C232.152 298.237 233.394 296.996 234.925 296.995C274.45 296.995 306.491 264.953 306.491 225.428C306.491 223.897 307.733 222.656 309.265 222.656C310.796 222.656 312.037 223.897 312.037 225.428L312.043 226.354C312.538 265.452 344.388 296.995 383.604 296.995C385.136 296.996 386.377 298.237 386.377 299.768Z" stroke="#82BAE9" stroke-width="3" stroke-linejoin="round"/>
</g>
<g opacity="0.9" filter="url(#filter19_f_3301_12451)">
<path d="M688.686 299.769C688.686 301.3 687.444 302.542 685.913 302.542C646.388 302.542 614.346 334.583 614.346 374.108C614.346 375.64 613.105 376.881 611.573 376.881C610.042 376.881 608.8 375.64 608.8 374.108C608.8 334.583 576.758 302.542 537.233 302.542C535.702 302.542 534.461 301.3 534.461 299.769C534.461 298.237 535.702 296.996 537.233 296.996C576.758 296.996 608.8 264.954 608.8 225.429C608.8 223.897 610.042 222.656 611.573 222.656C613.105 222.656 614.345 223.898 614.346 225.429L614.352 226.354C614.847 265.453 646.697 296.996 685.913 296.996C687.444 296.996 688.686 298.237 688.686 299.769Z" stroke="#82BAE9" stroke-width="3" stroke-linejoin="round"/>
</g>
<g opacity="0.9" filter="url(#filter20_f_3301_12451)">
<path d="M235.152 299.769C235.152 301.3 233.911 302.542 232.38 302.542C192.855 302.542 160.813 334.583 160.813 374.108C160.812 375.64 159.571 376.881 158.04 376.881C156.509 376.881 155.267 375.64 155.267 374.108C155.267 334.583 123.225 302.542 83.7002 302.542C82.1689 302.542 80.9277 301.3 80.9277 299.769C80.9278 298.237 82.1689 296.996 83.7002 296.996C123.225 296.996 155.267 264.954 155.267 225.429C155.267 223.897 156.509 222.656 158.04 222.656C159.571 222.656 160.812 223.898 160.813 225.429L160.818 226.354C161.314 265.453 193.164 296.996 232.38 296.996C233.911 296.996 235.152 298.237 235.152 299.769Z" stroke="#82BAE9" stroke-width="3" stroke-linejoin="round"/>
</g>
<g opacity="0.9" filter="url(#filter21_f_3301_12451)">
<path d="M1142.36 450.993C1142.36 452.524 1141.12 453.766 1139.59 453.767C1100.06 453.767 1068.02 485.808 1068.02 525.333C1068.02 526.864 1066.78 528.105 1065.25 528.105C1063.72 528.105 1062.47 526.864 1062.47 525.333C1062.47 485.808 1030.43 453.767 990.907 453.767C989.376 453.766 988.135 452.524 988.135 450.993C988.135 449.462 989.376 448.221 990.907 448.221C1030.43 448.221 1062.47 416.178 1062.47 376.653C1062.47 375.122 1063.72 373.881 1065.25 373.881C1066.78 373.881 1068.02 375.122 1068.02 376.653L1068.03 377.579C1068.52 416.678 1100.37 448.221 1139.59 448.221C1141.12 448.221 1142.36 449.462 1142.36 450.993Z" stroke="#82BAE9" stroke-width="3" stroke-linejoin="round"/>
</g>
<g opacity="0.9" filter="url(#filter22_f_3301_12451)">
<path d="M991.135 450.993C991.135 452.525 989.894 453.767 988.363 453.767C948.838 453.767 916.795 485.808 916.795 525.333C916.795 526.865 915.554 528.106 914.023 528.106C912.492 528.106 911.25 526.865 911.25 525.333C911.25 485.808 879.208 453.767 839.683 453.767C838.152 453.767 836.911 452.525 836.911 450.993C836.911 449.462 838.152 448.221 839.683 448.221C879.208 448.221 911.25 416.179 911.25 376.654C911.25 375.122 912.492 373.881 914.023 373.881C915.554 373.881 916.795 375.122 916.795 376.654L916.801 377.579C917.297 416.678 949.147 448.221 988.363 448.221C989.894 448.221 991.135 449.462 991.135 450.993Z" stroke="#82BAE9" stroke-width="3" stroke-linejoin="round"/>
</g>
<g opacity="0.9" filter="url(#filter23_f_3301_12451)">
<path d="M537.602 450.993C537.602 452.525 536.361 453.767 534.83 453.767C495.305 453.767 463.262 485.808 463.262 525.333C463.262 526.865 462.021 528.106 460.49 528.106C458.958 528.106 457.717 526.865 457.716 525.333C457.716 485.808 425.675 453.767 386.15 453.767C384.619 453.767 383.377 452.525 383.377 450.993C383.377 449.462 384.619 448.221 386.15 448.221C425.675 448.221 457.716 416.179 457.716 376.654C457.717 375.122 458.958 373.881 460.49 373.881C462.021 373.881 463.262 375.122 463.262 376.654L463.268 377.579C463.763 416.678 495.613 448.221 534.83 448.221C536.361 448.221 537.602 449.462 537.602 450.993Z" stroke="#82BAE9" stroke-width="3" stroke-linejoin="round"/>
</g>
<g opacity="0.9" filter="url(#filter24_f_3301_12451)">
<path d="M839.91 450.993C839.91 452.525 838.668 453.767 837.137 453.767C797.612 453.767 765.57 485.808 765.57 525.333C765.57 526.865 764.329 528.106 762.797 528.106C761.266 528.106 760.024 526.865 760.024 525.333C760.024 485.808 727.983 453.767 688.458 453.767C686.926 453.767 685.685 452.525 685.685 450.993C685.685 449.462 686.926 448.221 688.458 448.221C727.983 448.221 760.024 416.179 760.024 376.654C760.024 375.122 761.266 373.881 762.797 373.881C764.329 373.881 765.57 375.122 765.57 376.654L765.576 377.579C766.071 416.678 797.921 448.221 837.137 448.221C838.668 448.221 839.91 449.462 839.91 450.993Z" stroke="#82BAE9" stroke-width="3" stroke-linejoin="round"/>
</g>
<g opacity="0.9" filter="url(#filter25_f_3301_12451)">
<path d="M386.377 450.993C386.377 452.525 385.136 453.767 383.604 453.767C344.079 453.767 312.037 485.808 312.037 525.333C312.037 526.865 310.796 528.106 309.265 528.106C307.733 528.106 306.491 526.865 306.491 525.333C306.491 485.808 274.45 453.767 234.925 453.767C233.394 453.767 232.152 452.525 232.152 450.993C232.152 449.462 233.394 448.221 234.925 448.221C274.45 448.221 306.491 416.179 306.491 376.654C306.491 375.122 307.733 373.881 309.265 373.881C310.796 373.881 312.037 375.122 312.037 376.654L312.043 377.579C312.538 416.678 344.388 448.221 383.604 448.221C385.136 448.221 386.377 449.462 386.377 450.993Z" stroke="#82BAE9" stroke-width="3" stroke-linejoin="round"/>
</g>
<g opacity="0.9" filter="url(#filter26_f_3301_12451)">
<path d="M688.686 450.993C688.686 452.525 687.444 453.767 685.913 453.767C646.388 453.767 614.346 485.808 614.346 525.333C614.346 526.865 613.105 528.106 611.573 528.106C610.042 528.106 608.8 526.865 608.8 525.333C608.8 485.808 576.758 453.767 537.233 453.767C535.702 453.767 534.461 452.525 534.461 450.993C534.461 449.462 535.702 448.221 537.233 448.221C576.758 448.221 608.8 416.179 608.8 376.654C608.8 375.122 610.042 373.881 611.573 373.881C613.105 373.881 614.345 375.122 614.346 376.654L614.352 377.579C614.847 416.678 646.697 448.221 685.913 448.221C687.444 448.221 688.686 449.462 688.686 450.993Z" stroke="#82BAE9" stroke-width="3" stroke-linejoin="round"/>
</g>
<g opacity="0.9" filter="url(#filter27_f_3301_12451)">
<path d="M235.152 450.993C235.152 452.525 233.911 453.767 232.38 453.767C192.855 453.767 160.813 485.808 160.813 525.333C160.812 526.865 159.571 528.106 158.04 528.106C156.509 528.106 155.267 526.865 155.267 525.333C155.267 485.808 123.225 453.767 83.7002 453.767C82.1689 453.767 80.9277 452.525 80.9277 450.993C80.9278 449.462 82.1689 448.221 83.7002 448.221C123.225 448.221 155.267 416.179 155.267 376.654C155.267 375.122 156.509 373.881 158.04 373.881C159.571 373.881 160.812 375.122 160.813 376.654L160.818 377.579C161.314 416.678 193.164 448.221 232.38 448.221C233.911 448.221 235.152 449.462 235.152 450.993Z" stroke="#82BAE9" stroke-width="3" stroke-linejoin="round"/>
</g>
<g opacity="0.9" filter="url(#filter28_f_3301_12451)">
<path d="M1142.36 597.993C1142.36 599.524 1141.12 600.766 1139.59 600.767C1100.06 600.767 1068.02 632.808 1068.02 672.333C1068.02 673.864 1066.78 675.105 1065.25 675.105C1063.72 675.105 1062.47 673.864 1062.47 672.333C1062.47 632.808 1030.43 600.767 990.907 600.767C989.376 600.766 988.135 599.524 988.135 597.993C988.135 596.462 989.376 595.221 990.907 595.221C1030.43 595.221 1062.47 563.178 1062.47 523.653C1062.47 522.122 1063.72 520.881 1065.25 520.881C1066.78 520.881 1068.02 522.122 1068.02 523.653L1068.03 524.579C1068.52 563.678 1100.37 595.221 1139.59 595.221C1141.12 595.221 1142.36 596.462 1142.36 597.993Z" stroke="#82BAE9" stroke-width="3" stroke-linejoin="round"/>
</g>
<g opacity="0.9" filter="url(#filter29_f_3301_12451)">
<path d="M1293.36 148.544C1293.36 150.075 1292.12 151.317 1290.59 151.317C1251.06 151.317 1219.02 183.358 1219.02 222.884C1219.02 224.415 1217.78 225.656 1216.25 225.656C1214.72 225.656 1213.47 224.415 1213.47 222.884C1213.47 183.358 1181.43 151.317 1141.91 151.317C1140.38 151.317 1139.13 150.075 1139.13 148.544C1139.13 147.012 1140.38 145.771 1141.91 145.771C1181.43 145.771 1213.47 113.729 1213.47 74.2039C1213.47 72.6726 1214.72 71.4314 1216.25 71.4314C1217.78 71.4314 1219.02 72.6726 1219.02 74.2039L1219.03 75.1296C1219.52 114.228 1251.37 145.771 1290.59 145.771C1292.12 145.771 1293.36 147.012 1293.36 148.544Z" stroke="#82BAE9" stroke-width="3" stroke-linejoin="round"/>
</g>
<g opacity="0.9" filter="url(#filter30_f_3301_12451)">
<path d="M1293.36 1.5437C1293.36 3.07499 1292.12 4.31688 1290.59 4.31714C1251.06 4.31714 1219.02 36.3585 1219.02 75.8835C1219.02 77.4148 1217.78 78.656 1216.25 78.656C1214.72 78.656 1213.47 77.4148 1213.47 75.8835C1213.47 36.3585 1181.43 4.31714 1141.91 4.31715C1140.38 4.31695 1139.13 3.07504 1139.13 1.54371C1139.13 0.0124064 1140.38 -1.22856 1141.91 -1.22875C1181.43 -1.22875 1213.47 -33.2711 1213.47 -72.7961C1213.47 -74.3274 1214.72 -75.5686 1216.25 -75.5686C1217.78 -75.5686 1219.02 -74.3274 1219.02 -72.7961L1219.03 -71.8704C1219.52 -32.7717 1251.37 -1.22876 1290.59 -1.22876C1292.12 -1.2285 1293.36 0.0124412 1293.36 1.5437Z" stroke="#82BAE9" stroke-width="3" stroke-linejoin="round"/>
</g>
<g opacity="0.9" filter="url(#filter31_f_3301_12451)">
<path d="M1293.36 299.769C1293.36 301.3 1292.12 302.542 1290.59 302.542C1251.06 302.542 1219.02 334.584 1219.02 374.109C1219.02 375.64 1217.78 376.881 1216.25 376.881C1214.72 376.881 1213.47 375.64 1213.47 374.109C1213.47 334.584 1181.43 302.542 1141.91 302.542C1140.38 302.542 1139.13 301.3 1139.13 299.769C1139.13 298.238 1140.38 296.997 1141.91 296.996C1181.43 296.996 1213.47 264.954 1213.47 225.429C1213.47 223.898 1214.72 222.656 1216.25 222.656C1217.78 222.657 1219.02 223.898 1219.02 225.429L1219.03 226.355C1219.52 265.453 1251.37 296.996 1290.59 296.996C1292.12 296.997 1293.36 298.238 1293.36 299.769Z" stroke="#82BAE9" stroke-width="3" stroke-linejoin="round"/>
</g>
<g opacity="0.9" filter="url(#filter32_f_3301_12451)">
<path d="M1293.36 450.993C1293.36 452.524 1292.12 453.766 1290.59 453.767C1251.06 453.767 1219.02 485.808 1219.02 525.333C1219.02 526.864 1217.78 528.105 1216.25 528.105C1214.72 528.105 1213.47 526.864 1213.47 525.333C1213.47 485.808 1181.43 453.767 1141.91 453.767C1140.38 453.766 1139.13 452.524 1139.13 450.993C1139.13 449.462 1140.38 448.221 1141.91 448.221C1181.43 448.221 1213.47 416.178 1213.47 376.653C1213.47 375.122 1214.72 373.881 1216.25 373.881C1217.78 373.881 1219.02 375.122 1219.02 376.653L1219.03 377.579C1219.52 416.678 1251.37 448.221 1290.59 448.221C1292.12 448.221 1293.36 449.462 1293.36 450.993Z" stroke="#82BAE9" stroke-width="3" stroke-linejoin="round"/>
</g>
<g opacity="0.9" filter="url(#filter33_f_3301_12451)">
<path d="M1293.36 597.993C1293.36 599.524 1292.12 600.766 1290.59 600.767C1251.06 600.767 1219.02 632.808 1219.02 672.333C1219.02 673.864 1217.78 675.105 1216.25 675.105C1214.72 675.105 1213.47 673.864 1213.47 672.333C1213.47 632.808 1181.43 600.767 1141.91 600.767C1140.38 600.766 1139.13 599.524 1139.13 597.993C1139.13 596.462 1140.38 595.221 1141.91 595.221C1181.43 595.221 1213.47 563.178 1213.47 523.653C1213.47 522.122 1214.72 520.881 1216.25 520.881C1217.78 520.881 1219.02 522.122 1219.02 523.653L1219.03 524.579C1219.52 563.678 1251.37 595.221 1290.59 595.221C1292.12 595.221 1293.36 596.462 1293.36 597.993Z" stroke="#82BAE9" stroke-width="3" stroke-linejoin="round"/>
</g>
<g opacity="0.9" filter="url(#filter34_f_3301_12451)">
<path d="M991.135 597.993C991.135 599.525 989.894 600.767 988.363 600.767C948.838 600.767 916.795 632.808 916.795 672.333C916.795 673.865 915.554 675.106 914.023 675.106C912.492 675.106 911.25 673.865 911.25 672.333C911.25 632.808 879.208 600.767 839.683 600.767C838.152 600.767 836.911 599.525 836.911 597.993C836.911 596.462 838.152 595.221 839.683 595.221C879.208 595.221 911.25 563.179 911.25 523.654C911.25 522.122 912.492 520.881 914.023 520.881C915.554 520.881 916.795 522.122 916.795 523.654L916.801 524.579C917.297 563.678 949.147 595.221 988.363 595.221C989.894 595.221 991.135 596.462 991.135 597.993Z" stroke="#82BAE9" stroke-width="3" stroke-linejoin="round"/>
</g>
<g opacity="0.9" filter="url(#filter35_f_3301_12451)">
<path d="M537.602 597.993C537.602 599.525 536.361 600.767 534.83 600.767C495.305 600.767 463.262 632.808 463.262 672.333C463.262 673.865 462.021 675.106 460.49 675.106C458.958 675.106 457.717 673.865 457.716 672.333C457.716 632.808 425.675 600.767 386.15 600.767C384.619 600.767 383.377 599.525 383.377 597.993C383.377 596.462 384.619 595.221 386.15 595.221C425.675 595.221 457.716 563.179 457.716 523.654C457.717 522.122 458.958 520.881 460.49 520.881C462.021 520.881 463.262 522.122 463.262 523.654L463.268 524.579C463.763 563.678 495.613 595.221 534.83 595.221C536.361 595.221 537.602 596.462 537.602 597.993Z" stroke="#82BAE9" stroke-width="3" stroke-linejoin="round"/>
</g>
<g opacity="0.9" filter="url(#filter36_f_3301_12451)">
<path d="M839.91 597.993C839.91 599.525 838.668 600.767 837.137 600.767C797.612 600.767 765.57 632.808 765.57 672.333C765.57 673.865 764.329 675.106 762.797 675.106C761.266 675.106 760.024 673.865 760.024 672.333C760.024 632.808 727.983 600.767 688.458 600.767C686.926 600.767 685.685 599.525 685.685 597.993C685.685 596.462 686.926 595.221 688.458 595.221C727.983 595.221 760.024 563.179 760.024 523.654C760.024 522.122 761.266 520.881 762.797 520.881C764.329 520.881 765.57 522.122 765.57 523.654L765.576 524.579C766.071 563.678 797.921 595.221 837.137 595.221C838.668 595.221 839.91 596.462 839.91 597.993Z" stroke="#82BAE9" stroke-width="3" stroke-linejoin="round"/>
</g>
<g opacity="0.9" filter="url(#filter37_f_3301_12451)">
<path d="M386.377 597.993C386.377 599.525 385.136 600.767 383.604 600.767C344.079 600.767 312.037 632.808 312.037 672.333C312.037 673.865 310.796 675.106 309.265 675.106C307.733 675.106 306.491 673.865 306.491 672.333C306.491 632.808 274.45 600.767 234.925 600.767C233.394 600.767 232.152 599.525 232.152 597.993C232.152 596.462 233.394 595.221 234.925 595.221C274.45 595.221 306.491 563.179 306.491 523.654C306.491 522.122 307.733 520.881 309.265 520.881C310.796 520.881 312.037 522.122 312.037 523.654L312.043 524.579C312.538 563.678 344.388 595.221 383.604 595.221C385.136 595.221 386.377 596.462 386.377 597.993Z" stroke="#82BAE9" stroke-width="3" stroke-linejoin="round"/>
</g>
<g opacity="0.9" filter="url(#filter38_f_3301_12451)">
<path d="M688.686 597.993C688.686 599.525 687.444 600.767 685.913 600.767C646.388 600.767 614.346 632.808 614.346 672.333C614.346 673.865 613.105 675.106 611.573 675.106C610.042 675.106 608.8 673.865 608.8 672.333C608.8 632.808 576.758 600.767 537.233 600.767C535.702 600.767 534.461 599.525 534.461 597.993C534.461 596.462 535.702 595.221 537.233 595.221C576.758 595.221 608.8 563.179 608.8 523.654C608.8 522.122 610.042 520.881 611.573 520.881C613.105 520.881 614.345 522.122 614.346 523.654L614.352 524.579C614.847 563.678 646.697 595.221 685.913 595.221C687.444 595.221 688.686 596.462 688.686 597.993Z" stroke="#82BAE9" stroke-width="3" stroke-linejoin="round"/>
</g>
<g opacity="0.9" filter="url(#filter39_f_3301_12451)">
<path d="M235.152 597.993C235.152 599.525 233.911 600.767 232.38 600.767C192.855 600.767 160.813 632.808 160.813 672.333C160.812 673.865 159.571 675.106 158.04 675.106C156.509 675.106 155.267 673.865 155.267 672.333C155.267 632.808 123.225 600.767 83.7002 600.767C82.1689 600.767 80.9277 599.525 80.9277 597.993C80.9278 596.462 82.1689 595.221 83.7002 595.221C123.225 595.221 155.267 563.179 155.267 523.654C155.267 522.122 156.509 520.881 158.04 520.881C159.571 520.881 160.812 522.122 160.813 523.654L160.818 524.579C161.314 563.678 193.164 595.221 232.38 595.221C233.911 595.221 235.152 596.462 235.152 597.993Z" stroke="#82BAE9" stroke-width="3" stroke-linejoin="round"/>
</g>
</g>
<defs>
<filter id="filter0_f_3301_12451" x="978.105" y="61.4014" width="174.285" height="174.285" filterUnits="userSpaceOnUse" color-interpolation-filters="sRGB">
<feFlood flood-opacity="0" result="BackgroundImageFix"/>
<feBlend mode="normal" in="SourceGraphic" in2="BackgroundImageFix" result="shape"/>
<feGaussianBlur stdDeviation="4.265" result="effect1_foregroundBlur_3301_12451"/>
</filter>
<filter id="filter1_f_3301_12451" x="826.878" y="61.3992" width="174.289" height="174.289" filterUnits="userSpaceOnUse" color-interpolation-filters="sRGB">
<feFlood flood-opacity="0" result="BackgroundImageFix"/>
<feBlend mode="normal" in="SourceGraphic" in2="BackgroundImageFix" result="shape"/>
<feGaussianBlur stdDeviation="4.26609" result="effect1_foregroundBlur_3301_12451"/>
</filter>
<filter id="filter2_f_3301_12451" x="374.966" y="63.0197" width="171.048" height="171.048" filterUnits="userSpaceOnUse" color-interpolation-filters="sRGB">
<feFlood flood-opacity="0" result="BackgroundImageFix"/>
<feBlend mode="normal" in="SourceGraphic" in2="BackgroundImageFix" result="shape"/>
<feGaussianBlur stdDeviation="3.45584" result="effect1_foregroundBlur_3301_12451"/>
</filter>
<filter id="filter3_f_3301_12451" x="667.121" y="52.867" width="191.353" height="191.354" filterUnits="userSpaceOnUse" color-interpolation-filters="sRGB">
<feFlood flood-opacity="0" result="BackgroundImageFix"/>
<feBlend mode="normal" in="SourceGraphic" in2="BackgroundImageFix" result="shape"/>
<feGaussianBlur stdDeviation="8.53219" result="effect1_foregroundBlur_3301_12451"/>
</filter>
<filter id="filter4_f_3301_12451" x="214.9" y="54.1788" width="188.73" height="188.73" filterUnits="userSpaceOnUse" color-interpolation-filters="sRGB">
<feFlood flood-opacity="0" result="BackgroundImageFix"/>
<feBlend mode="normal" in="SourceGraphic" in2="BackgroundImageFix" result="shape"/>
<feGaussianBlur stdDeviation="7.87629" result="effect1_foregroundBlur_3301_12451"/>
</filter>
<filter id="filter5_f_3301_12451" x="506.707" y="43.6771" width="209.733" height="209.733" filterUnits="userSpaceOnUse" color-interpolation-filters="sRGB">
<feFlood flood-opacity="0" result="BackgroundImageFix"/>
<feBlend mode="normal" in="SourceGraphic" in2="BackgroundImageFix" result="shape"/>
<feGaussianBlur stdDeviation="13.1271" result="effect1_foregroundBlur_3301_12451"/>
</filter>
<filter id="filter6_f_3301_12451" x="70.8977" y="61.4014" width="174.285" height="174.285" filterUnits="userSpaceOnUse" color-interpolation-filters="sRGB">
<feFlood flood-opacity="0" result="BackgroundImageFix"/>
<feBlend mode="normal" in="SourceGraphic" in2="BackgroundImageFix" result="shape"/>
<feGaussianBlur stdDeviation="4.265" result="effect1_foregroundBlur_3301_12451"/>
</filter>
<filter id="filter7_f_3301_12451" x="978.105" y="-85.5986" width="174.285" height="174.285" filterUnits="userSpaceOnUse" color-interpolation-filters="sRGB">
<feFlood flood-opacity="0" result="BackgroundImageFix"/>
<feBlend mode="normal" in="SourceGraphic" in2="BackgroundImageFix" result="shape"/>
<feGaussianBlur stdDeviation="4.265" result="effect1_foregroundBlur_3301_12451"/>
</filter>
<filter id="filter8_f_3301_12451" x="826.878" y="-85.6008" width="174.289" height="174.289" filterUnits="userSpaceOnUse" color-interpolation-filters="sRGB">
<feFlood flood-opacity="0" result="BackgroundImageFix"/>
<feBlend mode="normal" in="SourceGraphic" in2="BackgroundImageFix" result="shape"/>
<feGaussianBlur stdDeviation="4.26609" result="effect1_foregroundBlur_3301_12451"/>
</filter>
<filter id="filter9_f_3301_12451" x="374.966" y="-83.9803" width="171.048" height="171.048" filterUnits="userSpaceOnUse" color-interpolation-filters="sRGB">
<feFlood flood-opacity="0" result="BackgroundImageFix"/>
<feBlend mode="normal" in="SourceGraphic" in2="BackgroundImageFix" result="shape"/>
<feGaussianBlur stdDeviation="3.45584" result="effect1_foregroundBlur_3301_12451"/>
</filter>
<filter id="filter10_f_3301_12451" x="667.121" y="-94.133" width="191.353" height="191.353" filterUnits="userSpaceOnUse" color-interpolation-filters="sRGB">
<feFlood flood-opacity="0" result="BackgroundImageFix"/>
<feBlend mode="normal" in="SourceGraphic" in2="BackgroundImageFix" result="shape"/>
<feGaussianBlur stdDeviation="8.53219" result="effect1_foregroundBlur_3301_12451"/>
</filter>
<filter id="filter11_f_3301_12451" x="214.9" y="-92.8212" width="188.73" height="188.73" filterUnits="userSpaceOnUse" color-interpolation-filters="sRGB">
<feFlood flood-opacity="0" result="BackgroundImageFix"/>
<feBlend mode="normal" in="SourceGraphic" in2="BackgroundImageFix" result="shape"/>
<feGaussianBlur stdDeviation="7.87629" result="effect1_foregroundBlur_3301_12451"/>
</filter>
<filter id="filter12_f_3301_12451" x="506.707" y="-103.323" width="209.733" height="209.733" filterUnits="userSpaceOnUse" color-interpolation-filters="sRGB">
<feFlood flood-opacity="0" result="BackgroundImageFix"/>
<feBlend mode="normal" in="SourceGraphic" in2="BackgroundImageFix" result="shape"/>
<feGaussianBlur stdDeviation="13.1271" result="effect1_foregroundBlur_3301_12451"/>
</filter>
<filter id="filter13_f_3301_12451" x="70.8977" y="-85.5986" width="174.285" height="174.285" filterUnits="userSpaceOnUse" color-interpolation-filters="sRGB">
<feFlood flood-opacity="0" result="BackgroundImageFix"/>
<feBlend mode="normal" in="SourceGraphic" in2="BackgroundImageFix" result="shape"/>
<feGaussianBlur stdDeviation="4.265" result="effect1_foregroundBlur_3301_12451"/>
</filter>
<filter id="filter14_f_3301_12451" x="978.103" y="212.624" width="174.289" height="174.289" filterUnits="userSpaceOnUse" color-interpolation-filters="sRGB">
<feFlood flood-opacity="0" result="BackgroundImageFix"/>
<feBlend mode="normal" in="SourceGraphic" in2="BackgroundImageFix" result="shape"/>
<feGaussianBlur stdDeviation="4.26609" result="effect1_foregroundBlur_3301_12451"/>
</filter>
<filter id="filter15_f_3301_12451" x="812.658" y="198.403" width="202.73" height="202.73" filterUnits="userSpaceOnUse" color-interpolation-filters="sRGB">
<feFlood flood-opacity="0" result="BackgroundImageFix"/>
<feBlend mode="normal" in="SourceGraphic" in2="BackgroundImageFix" result="shape"/>
<feGaussianBlur stdDeviation="11.3763" result="effect1_foregroundBlur_3301_12451"/>
</filter>
<filter id="filter16_f_3301_12451" x="361.877" y="201.156" width="197.225" height="197.225" filterUnits="userSpaceOnUse" color-interpolation-filters="sRGB">
<feFlood flood-opacity="0" result="BackgroundImageFix"/>
<feBlend mode="normal" in="SourceGraphic" in2="BackgroundImageFix" result="shape"/>
<feGaussianBlur stdDeviation="10" result="effect1_foregroundBlur_3301_12451"/>
</filter>
<filter id="filter17_f_3301_12451" x="664.185" y="201.156" width="197.225" height="197.225" filterUnits="userSpaceOnUse" color-interpolation-filters="sRGB">
<feFlood flood-opacity="0" result="BackgroundImageFix"/>
<feBlend mode="normal" in="SourceGraphic" in2="BackgroundImageFix" result="shape"/>
<feGaussianBlur stdDeviation="10" result="effect1_foregroundBlur_3301_12451"/>
</filter>
<filter id="filter18_f_3301_12451" x="210.652" y="201.156" width="197.225" height="197.225" filterUnits="userSpaceOnUse" color-interpolation-filters="sRGB">
<feFlood flood-opacity="0" result="BackgroundImageFix"/>
<feBlend mode="normal" in="SourceGraphic" in2="BackgroundImageFix" result="shape"/>
<feGaussianBlur stdDeviation="10" result="effect1_foregroundBlur_3301_12451"/>
</filter>
<filter id="filter19_f_3301_12451" x="512.961" y="201.156" width="197.225" height="197.225" filterUnits="userSpaceOnUse" color-interpolation-filters="sRGB">
<feFlood flood-opacity="0" result="BackgroundImageFix"/>
<feBlend mode="normal" in="SourceGraphic" in2="BackgroundImageFix" result="shape"/>
<feGaussianBlur stdDeviation="10" result="effect1_foregroundBlur_3301_12451"/>
</filter>
<filter id="filter20_f_3301_12451" x="59.4277" y="201.156" width="197.225" height="197.225" filterUnits="userSpaceOnUse" color-interpolation-filters="sRGB">
<feFlood flood-opacity="0" result="BackgroundImageFix"/>
<feBlend mode="normal" in="SourceGraphic" in2="BackgroundImageFix" result="shape"/>
<feGaussianBlur stdDeviation="10" result="effect1_foregroundBlur_3301_12451"/>
</filter>
<filter id="filter21_f_3301_12451" x="978.105" y="363.851" width="174.285" height="174.285" filterUnits="userSpaceOnUse" color-interpolation-filters="sRGB">
<feFlood flood-opacity="0" result="BackgroundImageFix"/>
<feBlend mode="normal" in="SourceGraphic" in2="BackgroundImageFix" result="shape"/>
<feGaussianBlur stdDeviation="4.265" result="effect1_foregroundBlur_3301_12451"/>
</filter>
<filter id="filter22_f_3301_12451" x="815.411" y="352.381" width="197.225" height="197.225" filterUnits="userSpaceOnUse" color-interpolation-filters="sRGB">
<feFlood flood-opacity="0" result="BackgroundImageFix"/>
<feBlend mode="normal" in="SourceGraphic" in2="BackgroundImageFix" result="shape"/>
<feGaussianBlur stdDeviation="10" result="effect1_foregroundBlur_3301_12451"/>
</filter>
<filter id="filter23_f_3301_12451" x="361.877" y="352.381" width="197.225" height="197.225" filterUnits="userSpaceOnUse" color-interpolation-filters="sRGB">
<feFlood flood-opacity="0" result="BackgroundImageFix"/>
<feBlend mode="normal" in="SourceGraphic" in2="BackgroundImageFix" result="shape"/>
<feGaussianBlur stdDeviation="10" result="effect1_foregroundBlur_3301_12451"/>
</filter>
<filter id="filter24_f_3301_12451" x="675.685" y="363.881" width="174.225" height="174.225" filterUnits="userSpaceOnUse" color-interpolation-filters="sRGB">
<feFlood flood-opacity="0" result="BackgroundImageFix"/>
<feBlend mode="normal" in="SourceGraphic" in2="BackgroundImageFix" result="shape"/>
<feGaussianBlur stdDeviation="4.25" result="effect1_foregroundBlur_3301_12451"/>
</filter>
<filter id="filter25_f_3301_12451" x="210.652" y="352.381" width="197.225" height="197.225" filterUnits="userSpaceOnUse" color-interpolation-filters="sRGB">
<feFlood flood-opacity="0" result="BackgroundImageFix"/>
<feBlend mode="normal" in="SourceGraphic" in2="BackgroundImageFix" result="shape"/>
<feGaussianBlur stdDeviation="10" result="effect1_foregroundBlur_3301_12451"/>
</filter>
<filter id="filter26_f_3301_12451" x="524.461" y="363.881" width="174.225" height="174.225" filterUnits="userSpaceOnUse" color-interpolation-filters="sRGB">
<feFlood flood-opacity="0" result="BackgroundImageFix"/>
<feBlend mode="normal" in="SourceGraphic" in2="BackgroundImageFix" result="shape"/>
<feGaussianBlur stdDeviation="4.25" result="effect1_foregroundBlur_3301_12451"/>
</filter>
<filter id="filter27_f_3301_12451" x="59.4277" y="352.381" width="197.225" height="197.225" filterUnits="userSpaceOnUse" color-interpolation-filters="sRGB">
<feFlood flood-opacity="0" result="BackgroundImageFix"/>
<feBlend mode="normal" in="SourceGraphic" in2="BackgroundImageFix" result="shape"/>
<feGaussianBlur stdDeviation="10" result="effect1_foregroundBlur_3301_12451"/>
</filter>
<filter id="filter28_f_3301_12451" x="978.105" y="510.851" width="174.285" height="174.285" filterUnits="userSpaceOnUse" color-interpolation-filters="sRGB">
<feFlood flood-opacity="0" result="BackgroundImageFix"/>
<feBlend mode="normal" in="SourceGraphic" in2="BackgroundImageFix" result="shape"/>
<feGaussianBlur stdDeviation="4.265" result="effect1_foregroundBlur_3301_12451"/>
</filter>
<filter id="filter29_f_3301_12451" x="1129.1" y="61.4014" width="174.285" height="174.285" filterUnits="userSpaceOnUse" color-interpolation-filters="sRGB">
<feFlood flood-opacity="0" result="BackgroundImageFix"/>
<feBlend mode="normal" in="SourceGraphic" in2="BackgroundImageFix" result="shape"/>
<feGaussianBlur stdDeviation="4.265" result="effect1_foregroundBlur_3301_12451"/>
</filter>
<filter id="filter30_f_3301_12451" x="1129.1" y="-85.5986" width="174.285" height="174.285" filterUnits="userSpaceOnUse" color-interpolation-filters="sRGB">
<feFlood flood-opacity="0" result="BackgroundImageFix"/>
<feBlend mode="normal" in="SourceGraphic" in2="BackgroundImageFix" result="shape"/>
<feGaussianBlur stdDeviation="4.265" result="effect1_foregroundBlur_3301_12451"/>
</filter>
<filter id="filter31_f_3301_12451" x="1129.1" y="212.624" width="174.289" height="174.289" filterUnits="userSpaceOnUse" color-interpolation-filters="sRGB">
<feFlood flood-opacity="0" result="BackgroundImageFix"/>
<feBlend mode="normal" in="SourceGraphic" in2="BackgroundImageFix" result="shape"/>
<feGaussianBlur stdDeviation="4.26609" result="effect1_foregroundBlur_3301_12451"/>
</filter>
<filter id="filter32_f_3301_12451" x="1129.1" y="363.851" width="174.285" height="174.285" filterUnits="userSpaceOnUse" color-interpolation-filters="sRGB">
<feFlood flood-opacity="0" result="BackgroundImageFix"/>
<feBlend mode="normal" in="SourceGraphic" in2="BackgroundImageFix" result="shape"/>
<feGaussianBlur stdDeviation="4.265" result="effect1_foregroundBlur_3301_12451"/>
</filter>
<filter id="filter33_f_3301_12451" x="1129.1" y="510.851" width="174.285" height="174.285" filterUnits="userSpaceOnUse" color-interpolation-filters="sRGB">
<feFlood flood-opacity="0" result="BackgroundImageFix"/>
<feBlend mode="normal" in="SourceGraphic" in2="BackgroundImageFix" result="shape"/>
<feGaussianBlur stdDeviation="4.265" result="effect1_foregroundBlur_3301_12451"/>
</filter>
<filter id="filter34_f_3301_12451" x="815.411" y="499.381" width="197.225" height="197.225" filterUnits="userSpaceOnUse" color-interpolation-filters="sRGB">
<feFlood flood-opacity="0" result="BackgroundImageFix"/>
<feBlend mode="normal" in="SourceGraphic" in2="BackgroundImageFix" result="shape"/>
<feGaussianBlur stdDeviation="10" result="effect1_foregroundBlur_3301_12451"/>
</filter>
<filter id="filter35_f_3301_12451" x="361.877" y="499.381" width="197.225" height="197.225" filterUnits="userSpaceOnUse" color-interpolation-filters="sRGB">
<feFlood flood-opacity="0" result="BackgroundImageFix"/>
<feBlend mode="normal" in="SourceGraphic" in2="BackgroundImageFix" result="shape"/>
<feGaussianBlur stdDeviation="10" result="effect1_foregroundBlur_3301_12451"/>
</filter>
<filter id="filter36_f_3301_12451" x="664.185" y="499.381" width="197.225" height="197.225" filterUnits="userSpaceOnUse" color-interpolation-filters="sRGB">
<feFlood flood-opacity="0" result="BackgroundImageFix"/>
<feBlend mode="normal" in="SourceGraphic" in2="BackgroundImageFix" result="shape"/>
<feGaussianBlur stdDeviation="10" result="effect1_foregroundBlur_3301_12451"/>
</filter>
<filter id="filter37_f_3301_12451" x="223.252" y="511.981" width="172.025" height="172.025" filterUnits="userSpaceOnUse" color-interpolation-filters="sRGB">
<feFlood flood-opacity="0" result="BackgroundImageFix"/>
<feBlend mode="normal" in="SourceGraphic" in2="BackgroundImageFix" result="shape"/>
<feGaussianBlur stdDeviation="3.7" result="effect1_foregroundBlur_3301_12451"/>
</filter>
<filter id="filter38_f_3301_12451" x="512.961" y="499.381" width="197.225" height="197.225" filterUnits="userSpaceOnUse" color-interpolation-filters="sRGB">
<feFlood flood-opacity="0" result="BackgroundImageFix"/>
<feBlend mode="normal" in="SourceGraphic" in2="BackgroundImageFix" result="shape"/>
<feGaussianBlur stdDeviation="10" result="effect1_foregroundBlur_3301_12451"/>
</filter>
<filter id="filter39_f_3301_12451" x="59.4277" y="499.381" width="197.225" height="197.225" filterUnits="userSpaceOnUse" color-interpolation-filters="sRGB">
<feFlood flood-opacity="0" result="BackgroundImageFix"/>
<feBlend mode="normal" in="SourceGraphic" in2="BackgroundImageFix" result="shape"/>
<feGaussianBlur stdDeviation="10" result="effect1_foregroundBlur_3301_12451"/>
</filter>
<clipPath id="clip0_3301_12451">
<rect width="1219" height="752" fill="white" transform="matrix(-1 0 0 -1 1219 752)"/>
</clipPath>
</defs>
</svg>
