<svg width="1059" height="601" viewBox="0 0 1059 601" fill="none" xmlns="http://www.w3.org/2000/svg">
<g clip-path="url(#clip0_3301_12451)">
<g opacity="0.78" filter="url(#filter0_f_3301_12451)">
<path d="M1060.36 75.5437C1060.36 77.075 1059.12 78.3169 1057.59 78.3171C1018.06 78.3171 986.02 110.358 986.02 149.884C986.019 151.415 984.778 152.656 983.247 152.656C981.716 152.656 980.474 151.415 980.474 149.884C980.474 110.358 948.432 78.3171 908.907 78.3171C907.376 78.317 906.135 77.075 906.135 75.5437C906.135 74.0124 907.376 72.7714 908.907 72.7712C948.432 72.7712 980.474 40.7289 980.474 1.20386C980.474 -0.327373 981.716 -1.5686 983.247 -1.5686C984.778 -1.56857 986.019 -0.327354 986.02 1.20386L986.025 2.12964C986.521 41.2283 1018.37 72.7712 1057.59 72.7712C1059.12 72.7715 1060.36 74.0124 1060.36 75.5437Z" stroke="#82BAE9" stroke-width="3" stroke-linejoin="round"/>
</g>
<g opacity="0.78" filter="url(#filter1_f_3301_12451)">
<path d="M909.135 75.5437C909.135 77.075 907.894 78.3169 906.363 78.3171C866.838 78.3171 834.795 110.358 834.795 149.884C834.795 151.415 833.554 152.656 832.023 152.656C830.492 152.656 829.25 151.415 829.25 149.884C829.25 110.358 797.208 78.3171 757.683 78.3171C756.152 78.317 754.911 77.075 754.911 75.5437C754.911 74.0124 756.152 72.7714 757.683 72.7712C797.208 72.7712 829.25 40.7289 829.25 1.20386C829.25 -0.327373 830.492 -1.5686 832.023 -1.5686C833.554 -1.56857 834.795 -0.327354 834.795 1.20386L834.801 2.12964C835.297 41.2283 867.147 72.7712 906.363 72.7712C907.894 72.7715 909.135 74.0124 909.135 75.5437Z" stroke="#82BAE9" stroke-width="3" stroke-linejoin="round"/>
</g>
<g opacity="0.4" filter="url(#filter2_f_3301_12451)">
<path d="M455.602 75.5437C455.602 77.075 454.361 78.3169 452.83 78.3171C413.305 78.3171 381.262 110.358 381.262 149.884C381.262 151.415 380.021 152.656 378.49 152.656C376.958 152.656 375.717 151.415 375.716 149.884C375.716 110.358 343.675 78.3171 304.15 78.3171C302.619 78.317 301.377 77.075 301.377 75.5437C301.377 74.0124 302.619 72.7714 304.15 72.7712C343.675 72.7712 375.716 40.7289 375.716 1.20386C375.717 -0.327373 376.958 -1.5686 378.49 -1.5686C380.021 -1.56857 381.262 -0.327354 381.262 1.20386L381.268 2.12964C381.763 41.2283 413.613 72.7712 452.83 72.7712C454.361 72.7715 455.602 74.0124 455.602 75.5437Z" stroke="#82BAE9" stroke-width="3" stroke-linejoin="round"/>
</g>
<g opacity="0.9" filter="url(#filter3_f_3301_12451)">
<path d="M757.91 75.5437C757.91 77.075 756.668 78.3169 755.137 78.3171C715.612 78.3171 683.57 110.358 683.57 149.884C683.57 151.415 682.329 152.656 680.797 152.656C679.266 152.656 678.024 151.415 678.024 149.884C678.024 110.358 645.983 78.3171 606.458 78.3171C604.926 78.317 603.685 77.075 603.685 75.5437C603.685 74.0124 604.926 72.7714 606.458 72.7712C645.983 72.7712 678.024 40.7289 678.024 1.20386C678.024 -0.327373 679.266 -1.5686 680.797 -1.5686C682.329 -1.56857 683.57 -0.327354 683.57 1.20386L683.576 2.12964C684.071 41.2283 715.921 72.7712 755.137 72.7712C756.668 72.7715 757.91 74.0124 757.91 75.5437Z" stroke="#82BAE9" stroke-width="3" stroke-linejoin="round"/>
</g>
<g opacity="0.4" filter="url(#filter4_f_3301_12451)">
<path d="M304.377 75.5437C304.377 77.075 303.136 78.3169 301.604 78.3171C262.079 78.3171 230.037 110.358 230.037 149.884C230.037 151.415 228.796 152.656 227.265 152.656C225.733 152.656 224.491 151.415 224.491 149.884C224.491 110.358 192.45 78.3171 152.925 78.3171C151.394 78.317 150.152 77.075 150.152 75.5437C150.152 74.0124 151.394 72.7714 152.925 72.7712C192.45 72.7712 224.491 40.7289 224.491 1.20386C224.491 -0.327373 225.733 -1.5686 227.265 -1.5686C228.796 -1.56857 230.037 -0.327354 230.037 1.20386L230.043 2.12964C230.538 41.2283 262.388 72.7712 301.604 72.7712C303.136 72.7715 304.377 74.0124 304.377 75.5437Z" stroke="#82BAE9" stroke-width="3" stroke-linejoin="round"/>
</g>
<g opacity="0.4" filter="url(#filter5_f_3301_12451)">
<path d="M606.686 75.5437C606.686 77.075 605.444 78.3169 603.913 78.3171C564.388 78.3171 532.346 110.358 532.346 149.884C532.346 151.415 531.105 152.656 529.573 152.656C528.042 152.656 526.8 151.415 526.8 149.884C526.8 110.358 494.758 78.3171 455.233 78.3171C453.702 78.317 452.461 77.075 452.461 75.5437C452.461 74.0124 453.702 72.7714 455.233 72.7712C494.758 72.7712 526.8 40.7289 526.8 1.20386C526.8 -0.327373 528.042 -1.5686 529.573 -1.5686C531.105 -1.56857 532.345 -0.327354 532.346 1.20386L532.352 2.12964C532.847 41.2283 564.697 72.7712 603.913 72.7712C605.444 72.7715 606.686 74.0124 606.686 75.5437Z" stroke="#82BAE9" stroke-width="3" stroke-linejoin="round"/>
</g>
<g opacity="0.4" filter="url(#filter6_f_3301_12451)">
<path d="M153.152 75.5437C153.152 77.075 151.911 78.3169 150.38 78.3171C110.855 78.3171 78.8125 110.358 78.8125 149.884C78.8123 151.415 77.5713 152.656 76.04 152.656C74.5087 152.656 73.2668 151.415 73.2666 149.884C73.2666 110.358 41.2253 78.3171 1.7002 78.3171C0.168915 78.317 -1.07226 77.075 -1.07226 75.5437C-1.07223 74.0124 0.168935 72.7714 1.7002 72.7712C41.2253 72.7712 73.2666 40.7289 73.2666 1.20386C73.2669 -0.327373 74.5088 -1.5686 76.04 -1.5686C77.5713 -1.56857 78.8122 -0.327354 78.8125 1.20386L78.8184 2.12964C79.3138 41.2283 111.164 72.7712 150.38 72.7712C151.911 72.7715 153.152 74.0124 153.152 75.5437Z" stroke="#82BAE9" stroke-width="3" stroke-linejoin="round"/>
</g>
<g opacity="0.9" filter="url(#filter7_f_3301_12451)">
<path d="M1060.36 -71.4563C1060.36 -69.925 1059.12 -68.6831 1057.59 -68.6829C1018.06 -68.6829 986.02 -36.6415 986.02 2.88355C986.019 4.41481 984.778 5.65598 983.247 5.65601C981.716 5.65601 980.474 4.41483 980.474 2.88355C980.474 -36.6415 948.432 -68.6829 908.907 -68.6829C907.376 -68.683 906.135 -69.925 906.135 -71.4563C906.135 -72.9876 907.376 -74.2286 908.907 -74.2288C948.432 -74.2288 980.474 -106.271 980.474 -145.796C980.474 -147.327 981.716 -148.569 983.247 -148.569C984.778 -148.569 986.019 -147.327 986.02 -145.796L986.025 -144.87C986.521 -105.772 1018.37 -74.2288 1057.59 -74.2288C1059.12 -74.2285 1060.36 -72.9876 1060.36 -71.4563Z" stroke="#82BAE9" stroke-width="3" stroke-linejoin="round"/>
</g>
<g opacity="0.9" filter="url(#filter8_f_3301_12451)">
<path d="M909.135 -71.4563C909.135 -69.925 907.894 -68.6831 906.363 -68.6829C866.838 -68.6829 834.795 -36.6415 834.795 2.88355C834.795 4.41481 833.554 5.65598 832.023 5.65601C830.492 5.65601 829.25 4.41483 829.25 2.88355C829.25 -36.6415 797.208 -68.6829 757.683 -68.6829C756.152 -68.683 754.911 -69.925 754.911 -71.4563C754.911 -72.9876 756.152 -74.2286 757.683 -74.2288C797.208 -74.2288 829.25 -106.271 829.25 -145.796C829.25 -147.327 830.492 -148.569 832.023 -148.569C833.554 -148.569 834.795 -147.327 834.795 -145.796L834.801 -144.87C835.297 -105.772 867.147 -74.2288 906.363 -74.2288C907.894 -74.2285 909.135 -72.9876 909.135 -71.4563Z" stroke="#82BAE9" stroke-width="3" stroke-linejoin="round"/>
</g>
<g opacity="0.4" filter="url(#filter9_f_3301_12451)">
<path d="M455.602 -71.4563C455.602 -69.925 454.361 -68.6831 452.83 -68.6829C413.305 -68.6829 381.262 -36.6415 381.262 2.88355C381.262 4.41481 380.021 5.65598 378.49 5.65601C376.958 5.65601 375.717 4.41483 375.716 2.88355C375.716 -36.6415 343.675 -68.6829 304.15 -68.6829C302.619 -68.683 301.377 -69.925 301.377 -71.4563C301.377 -72.9876 302.619 -74.2286 304.15 -74.2288C343.675 -74.2288 375.716 -106.271 375.716 -145.796C375.717 -147.327 376.958 -148.569 378.49 -148.569C380.021 -148.569 381.262 -147.327 381.262 -145.796L381.268 -144.87C381.763 -105.772 413.613 -74.2288 452.83 -74.2288C454.361 -74.2285 455.602 -72.9876 455.602 -71.4563Z" stroke="#82BAE9" stroke-width="3" stroke-linejoin="round"/>
</g>
<g opacity="0.9" filter="url(#filter10_f_3301_12451)">
<path d="M757.91 -71.4563C757.91 -69.925 756.668 -68.6831 755.137 -68.6829C715.612 -68.6829 683.57 -36.6415 683.57 2.88355C683.57 4.41481 682.329 5.65598 680.797 5.65601C679.266 5.65601 678.024 4.41483 678.024 2.88355C678.024 -36.6415 645.983 -68.6829 606.458 -68.6829C604.926 -68.683 603.685 -69.925 603.685 -71.4563C603.685 -72.9876 604.926 -74.2286 606.458 -74.2288C645.983 -74.2288 678.024 -106.271 678.024 -145.796C678.024 -147.327 679.266 -148.569 680.797 -148.569C682.329 -148.569 683.57 -147.327 683.57 -145.796L683.576 -144.87C684.071 -105.772 715.921 -74.2288 755.137 -74.2288C756.668 -74.2285 757.91 -72.9876 757.91 -71.4563Z" stroke="#82BAE9" stroke-width="3" stroke-linejoin="round"/>
</g>
<g opacity="0.4" filter="url(#filter11_f_3301_12451)">
<path d="M304.377 -71.4563C304.377 -69.925 303.136 -68.6831 301.604 -68.6829C262.079 -68.6829 230.037 -36.6415 230.037 2.88355C230.037 4.41481 228.796 5.65598 227.265 5.65601C225.733 5.65601 224.491 4.41483 224.491 2.88355C224.491 -36.6415 192.45 -68.6829 152.925 -68.6829C151.394 -68.683 150.152 -69.925 150.152 -71.4563C150.152 -72.9876 151.394 -74.2286 152.925 -74.2288C192.45 -74.2288 224.491 -106.271 224.491 -145.796C224.491 -147.327 225.733 -148.569 227.265 -148.569C228.796 -148.569 230.037 -147.327 230.037 -145.796L230.043 -144.87C230.538 -105.772 262.388 -74.2288 301.604 -74.2288C303.136 -74.2285 304.377 -72.9876 304.377 -71.4563Z" stroke="#82BAE9" stroke-width="3" stroke-linejoin="round"/>
</g>
<g opacity="0.4" filter="url(#filter12_f_3301_12451)">
<path d="M606.686 -71.4563C606.686 -69.925 605.444 -68.6831 603.913 -68.6829C564.388 -68.6829 532.346 -36.6415 532.346 2.88355C532.346 4.41481 531.105 5.65598 529.573 5.65601C528.042 5.65601 526.8 4.41483 526.8 2.88355C526.8 -36.6415 494.758 -68.6829 455.233 -68.6829C453.702 -68.683 452.461 -69.925 452.461 -71.4563C452.461 -72.9876 453.702 -74.2286 455.233 -74.2288C494.758 -74.2288 526.8 -106.271 526.8 -145.796C526.8 -147.327 528.042 -148.569 529.573 -148.569C531.105 -148.569 532.345 -147.327 532.346 -145.796L532.352 -144.87C532.847 -105.772 564.697 -74.2288 603.913 -74.2288C605.444 -74.2285 606.686 -72.9876 606.686 -71.4563Z" stroke="#82BAE9" stroke-width="3" stroke-linejoin="round"/>
</g>
<g opacity="0.4" filter="url(#filter13_f_3301_12451)">
<path d="M153.152 -71.4563C153.152 -69.925 151.911 -68.6831 150.38 -68.6829C110.855 -68.6829 78.8125 -36.6415 78.8125 2.88355C78.8123 4.41481 77.5713 5.65598 76.04 5.65601C74.5087 5.65601 73.2668 4.41483 73.2666 2.88355C73.2666 -36.6415 41.2253 -68.6829 1.7002 -68.6829C0.168915 -68.683 -1.07226 -69.925 -1.07226 -71.4563C-1.07223 -72.9876 0.168935 -74.2286 1.7002 -74.2288C41.2253 -74.2288 73.2666 -106.271 73.2666 -145.796C73.2669 -147.327 74.5088 -148.569 76.04 -148.569C77.5713 -148.569 78.8122 -147.327 78.8125 -145.796L78.8184 -144.87C79.3138 -105.772 111.164 -74.2288 150.38 -74.2288C151.911 -74.2285 153.152 -72.9876 153.152 -71.4563Z" stroke="#82BAE9" stroke-width="3" stroke-linejoin="round"/>
</g>
<g opacity="0.78" filter="url(#filter14_f_3301_12451)">
<path d="M1060.36 226.769C1060.36 228.3 1059.12 229.542 1057.59 229.542C1018.06 229.542 986.02 261.584 986.02 301.109C986.019 302.64 984.778 303.881 983.247 303.881C981.716 303.881 980.474 302.64 980.474 301.109C980.474 261.584 948.432 229.542 908.907 229.542C907.376 229.542 906.135 228.3 906.135 226.769C906.135 225.238 907.376 223.997 908.907 223.996C948.432 223.996 980.474 191.954 980.474 152.429C980.474 150.898 981.716 149.656 983.247 149.656C984.778 149.657 986.019 150.898 986.02 152.429L986.025 153.355C986.521 192.453 1018.37 223.996 1057.59 223.996C1059.12 223.997 1060.36 225.238 1060.36 226.769Z" stroke="#82BAE9" stroke-width="3" stroke-linejoin="round"/>
</g>
<g opacity="0.78" filter="url(#filter15_f_3301_12451)">
<path d="M909.135 226.768C909.135 228.299 907.894 229.541 906.363 229.541C866.838 229.541 834.795 261.583 834.795 301.108C834.795 302.639 833.554 303.88 832.023 303.88C830.492 303.88 829.25 302.639 829.25 301.108C829.25 261.583 797.208 229.541 757.683 229.541C756.152 229.541 754.911 228.299 754.911 226.768C754.911 225.237 756.152 223.996 757.683 223.995C797.208 223.995 829.25 191.953 829.25 152.428C829.25 150.897 830.492 149.656 832.023 149.656C833.554 149.656 834.795 150.897 834.795 152.428L834.801 153.354C835.297 192.452 867.147 223.995 906.363 223.995C907.894 223.996 909.135 225.237 909.135 226.768Z" stroke="#82BAE9" stroke-width="3" stroke-linejoin="round"/>
</g>
<g opacity="0.4" filter="url(#filter16_f_3301_12451)">
<path d="M455.602 226.768C455.602 228.299 454.361 229.541 452.83 229.541C413.305 229.541 381.262 261.583 381.262 301.108C381.262 302.639 380.021 303.88 378.49 303.88C376.958 303.88 375.717 302.639 375.716 301.108C375.716 261.583 343.675 229.541 304.15 229.541C302.619 229.541 301.377 228.299 301.377 226.768C301.377 225.237 302.619 223.996 304.15 223.995C343.675 223.995 375.716 191.953 375.716 152.428C375.717 150.897 376.958 149.656 378.49 149.656C380.021 149.656 381.262 150.897 381.262 152.428L381.268 153.354C381.763 192.452 413.613 223.995 452.83 223.995C454.361 223.996 455.602 225.237 455.602 226.768Z" stroke="#82BAE9" stroke-width="3" stroke-linejoin="round"/>
</g>
<g opacity="0.9" filter="url(#filter17_f_3301_12451)">
<path d="M757.91 226.768C757.91 228.299 756.668 229.541 755.137 229.541C715.612 229.541 683.57 261.583 683.57 301.108C683.57 302.639 682.329 303.88 680.797 303.88C679.266 303.88 678.024 302.639 678.024 301.108C678.024 261.583 645.983 229.541 606.458 229.541C604.926 229.541 603.685 228.299 603.685 226.768C603.685 225.237 604.926 223.996 606.458 223.995C645.983 223.995 678.024 191.953 678.024 152.428C678.024 150.897 679.266 149.656 680.797 149.656C682.329 149.656 683.57 150.897 683.57 152.428L683.576 153.354C684.071 192.452 715.921 223.995 755.137 223.995C756.668 223.996 757.91 225.237 757.91 226.768Z" stroke="#82BAE9" stroke-width="3" stroke-linejoin="round"/>
</g>
<g opacity="0.4" filter="url(#filter18_f_3301_12451)">
<path d="M304.377 226.768C304.377 228.299 303.136 229.541 301.604 229.541C262.079 229.541 230.037 261.583 230.037 301.108C230.037 302.639 228.796 303.88 227.265 303.88C225.733 303.88 224.491 302.639 224.491 301.108C224.491 261.583 192.45 229.541 152.925 229.541C151.394 229.541 150.152 228.299 150.152 226.768C150.152 225.237 151.394 223.996 152.925 223.995C192.45 223.995 224.491 191.953 224.491 152.428C224.491 150.897 225.733 149.656 227.265 149.656C228.796 149.656 230.037 150.897 230.037 152.428L230.043 153.354C230.538 192.452 262.388 223.995 301.604 223.995C303.136 223.996 304.377 225.237 304.377 226.768Z" stroke="#82BAE9" stroke-width="3" stroke-linejoin="round"/>
</g>
<g opacity="0.3" filter="url(#filter19_f_3301_12451)">
<path d="M606.686 226.769C606.686 228.3 605.444 229.542 603.913 229.542C564.388 229.542 532.346 261.583 532.346 301.108C532.346 302.64 531.105 303.881 529.573 303.881C528.042 303.881 526.8 302.64 526.8 301.108C526.8 261.583 494.758 229.542 455.233 229.542C453.702 229.542 452.461 228.3 452.461 226.769C452.461 225.237 453.702 223.996 455.233 223.996C494.758 223.996 526.8 191.954 526.8 152.429C526.8 150.897 528.042 149.656 529.573 149.656C531.105 149.656 532.345 150.898 532.346 152.429L532.352 153.354C532.847 192.453 564.697 223.996 603.913 223.996C605.444 223.996 606.686 225.237 606.686 226.769Z" stroke="#82BAE9" stroke-width="3" stroke-linejoin="round"/>
</g>
<g opacity="0.4" filter="url(#filter20_f_3301_12451)">
<path d="M153.152 226.769C153.152 228.3 151.911 229.542 150.38 229.542C110.855 229.542 78.8125 261.583 78.8125 301.108C78.8123 302.64 77.5713 303.881 76.04 303.881C74.5087 303.881 73.2668 302.64 73.2666 301.108C73.2666 261.583 41.2253 229.542 1.7002 229.542C0.168915 229.542 -1.07226 228.3 -1.07226 226.769C-1.07223 225.237 0.168935 223.996 1.7002 223.996C41.2253 223.996 73.2666 191.954 73.2666 152.429C73.2669 150.897 74.5088 149.656 76.04 149.656C77.5713 149.656 78.8122 150.898 78.8125 152.429L78.8184 153.354C79.3138 192.453 111.164 223.996 150.38 223.996C151.911 223.996 153.152 225.237 153.152 226.769Z" stroke="#82BAE9" stroke-width="3" stroke-linejoin="round"/>
</g>
<g opacity="0.5" filter="url(#filter21_f_3301_12451)">
<path d="M1060.36 377.993C1060.36 379.524 1059.12 380.766 1057.59 380.767C1018.06 380.767 986.02 412.808 986.02 452.333C986.019 453.864 984.778 455.105 983.247 455.105C981.716 455.105 980.474 453.864 980.474 452.333C980.474 412.808 948.432 380.767 908.907 380.767C907.376 380.766 906.135 379.524 906.135 377.993C906.135 376.462 907.376 375.221 908.907 375.221C948.432 375.221 980.474 343.178 980.474 303.653C980.474 302.122 981.716 300.881 983.247 300.881C984.778 300.881 986.019 302.122 986.02 303.653L986.025 304.579C986.521 343.678 1018.37 375.221 1057.59 375.221C1059.12 375.221 1060.36 376.462 1060.36 377.993Z" stroke="#82BAE9" stroke-width="3" stroke-linejoin="round"/>
</g>
<g opacity="0.5" filter="url(#filter22_f_3301_12451)">
<path d="M909.135 377.993C909.135 379.525 907.894 380.767 906.363 380.767C866.838 380.767 834.795 412.808 834.795 452.333C834.795 453.865 833.554 455.106 832.023 455.106C830.492 455.106 829.25 453.865 829.25 452.333C829.25 412.808 797.208 380.767 757.683 380.767C756.152 380.767 754.911 379.525 754.911 377.993C754.911 376.462 756.152 375.221 757.683 375.221C797.208 375.221 829.25 343.179 829.25 303.654C829.25 302.122 830.492 300.881 832.023 300.881C833.554 300.881 834.795 302.122 834.795 303.654L834.801 304.579C835.297 343.678 867.147 375.221 906.363 375.221C907.894 375.221 909.135 376.462 909.135 377.993Z" stroke="#82BAE9" stroke-width="3" stroke-linejoin="round"/>
</g>
<g opacity="0.3" filter="url(#filter23_f_3301_12451)">
<path d="M455.602 377.993C455.602 379.525 454.361 380.767 452.83 380.767C413.305 380.767 381.262 412.808 381.262 452.333C381.262 453.865 380.021 455.106 378.49 455.106C376.958 455.106 375.717 453.865 375.716 452.333C375.716 412.808 343.675 380.767 304.15 380.767C302.619 380.767 301.377 379.525 301.377 377.993C301.377 376.462 302.619 375.221 304.15 375.221C343.675 375.221 375.716 343.179 375.716 303.654C375.717 302.122 376.958 300.881 378.49 300.881C380.021 300.881 381.262 302.122 381.262 303.654L381.268 304.579C381.763 343.678 413.613 375.221 452.83 375.221C454.361 375.221 455.602 376.462 455.602 377.993Z" stroke="#82BAE9" stroke-width="3" stroke-linejoin="round"/>
</g>
<g opacity="0.3" filter="url(#filter24_f_3301_12451)">
<path d="M757.91 377.993C757.91 379.525 756.668 380.767 755.137 380.767C715.612 380.767 683.57 412.808 683.57 452.333C683.57 453.865 682.329 455.106 680.797 455.106C679.266 455.106 678.024 453.865 678.024 452.333C678.024 412.808 645.983 380.767 606.458 380.767C604.926 380.767 603.685 379.525 603.685 377.993C603.685 376.462 604.926 375.221 606.458 375.221C645.983 375.221 678.024 343.179 678.024 303.654C678.024 302.122 679.266 300.881 680.797 300.881C682.329 300.881 683.57 302.122 683.57 303.654L683.576 304.579C684.071 343.678 715.921 375.221 755.137 375.221C756.668 375.221 757.91 376.462 757.91 377.993Z" stroke="#82BAE9" stroke-width="3" stroke-linejoin="round"/>
</g>
<g opacity="0.2" filter="url(#filter25_f_3301_12451)">
<path d="M304.377 377.993C304.377 379.525 303.136 380.767 301.604 380.767C262.079 380.767 230.037 412.808 230.037 452.333C230.037 453.865 228.796 455.106 227.265 455.106C225.733 455.106 224.491 453.865 224.491 452.333C224.491 412.808 192.45 380.767 152.925 380.767C151.394 380.767 150.152 379.525 150.152 377.993C150.152 376.462 151.394 375.221 152.925 375.221C192.45 375.221 224.491 343.179 224.491 303.654C224.491 302.122 225.733 300.881 227.265 300.881C228.796 300.881 230.037 302.122 230.037 303.654L230.043 304.579C230.538 343.678 262.388 375.221 301.604 375.221C303.136 375.221 304.377 376.462 304.377 377.993Z" stroke="#82BAE9" stroke-width="3" stroke-linejoin="round"/>
</g>
<g opacity="0.3" filter="url(#filter26_f_3301_12451)">
<path d="M606.686 377.993C606.686 379.525 605.444 380.767 603.913 380.767C564.388 380.767 532.346 412.808 532.346 452.333C532.346 453.865 531.105 455.106 529.573 455.106C528.042 455.106 526.8 453.865 526.8 452.333C526.8 412.808 494.758 380.767 455.233 380.767C453.702 380.767 452.461 379.525 452.461 377.993C452.461 376.462 453.702 375.221 455.233 375.221C494.758 375.221 526.8 343.179 526.8 303.654C526.8 302.122 528.042 300.881 529.573 300.881C531.105 300.881 532.345 302.122 532.346 303.654L532.352 304.579C532.847 343.678 564.697 375.221 603.913 375.221C605.444 375.221 606.686 376.462 606.686 377.993Z" stroke="#82BAE9" stroke-width="3" stroke-linejoin="round"/>
</g>
<g opacity="0.2" filter="url(#filter27_f_3301_12451)">
<path d="M153.152 377.993C153.152 379.525 151.911 380.767 150.38 380.767C110.855 380.767 78.8125 412.808 78.8125 452.333C78.8123 453.865 77.5713 455.106 76.04 455.106C74.5087 455.106 73.2668 453.865 73.2666 452.333C73.2666 412.808 41.2253 380.767 1.7002 380.767C0.168915 380.767 -1.07226 379.525 -1.07226 377.993C-1.07223 376.462 0.168935 375.221 1.7002 375.221C41.2253 375.221 73.2666 343.179 73.2666 303.654C73.2669 302.122 74.5088 300.881 76.04 300.881C77.5713 300.881 78.8122 302.122 78.8125 303.654L78.8184 304.579C79.3138 343.678 111.164 375.221 150.38 375.221C151.911 375.221 153.152 376.462 153.152 377.993Z" stroke="#82BAE9" stroke-width="3" stroke-linejoin="round"/>
</g>
<g opacity="0.5" filter="url(#filter28_f_3301_12451)">
<path d="M1060.36 524.993C1060.36 526.524 1059.12 527.766 1057.59 527.767C1018.06 527.767 986.02 559.808 986.02 599.333C986.019 600.864 984.778 602.105 983.247 602.105C981.716 602.105 980.474 600.864 980.474 599.333C980.474 559.808 948.432 527.767 908.907 527.767C907.376 527.766 906.135 526.524 906.135 524.993C906.135 523.462 907.376 522.221 908.907 522.221C948.432 522.221 980.474 490.178 980.474 450.653C980.474 449.122 981.716 447.881 983.247 447.881C984.778 447.881 986.019 449.122 986.02 450.653L986.025 451.579C986.521 490.678 1018.37 522.221 1057.59 522.221C1059.12 522.221 1060.36 523.462 1060.36 524.993Z" stroke="#82BAE9" stroke-width="3" stroke-linejoin="round"/>
</g>
<g opacity="0.78" filter="url(#filter29_f_3301_12451)">
<path d="M1211.36 75.5437C1211.36 77.075 1210.12 78.3169 1208.59 78.3171C1169.06 78.3171 1137.02 110.358 1137.02 149.884C1137.02 151.415 1135.78 152.656 1134.25 152.656C1132.72 152.656 1131.47 151.415 1131.47 149.884C1131.47 110.358 1099.43 78.3171 1059.91 78.3171C1058.38 78.317 1057.13 77.075 1057.13 75.5437C1057.13 74.0124 1058.38 72.7714 1059.91 72.7712C1099.43 72.7712 1131.47 40.7289 1131.47 1.20386C1131.47 -0.327373 1132.72 -1.5686 1134.25 -1.5686C1135.78 -1.56857 1137.02 -0.327354 1137.02 1.20386L1137.03 2.12964C1137.52 41.2283 1169.37 72.7712 1208.59 72.7712C1210.12 72.7715 1211.36 74.0124 1211.36 75.5437Z" stroke="#82BAE9" stroke-width="3" stroke-linejoin="round"/>
</g>
<g opacity="0.9" filter="url(#filter30_f_3301_12451)">
<path d="M1211.36 -71.4563C1211.36 -69.925 1210.12 -68.6831 1208.59 -68.6829C1169.06 -68.6829 1137.02 -36.6415 1137.02 2.88355C1137.02 4.41481 1135.78 5.65598 1134.25 5.65601C1132.72 5.65601 1131.47 4.41483 1131.47 2.88355C1131.47 -36.6415 1099.43 -68.6829 1059.91 -68.6829C1058.38 -68.683 1057.13 -69.925 1057.13 -71.4563C1057.13 -72.9876 1058.38 -74.2286 1059.91 -74.2288C1099.43 -74.2288 1131.47 -106.271 1131.47 -145.796C1131.47 -147.327 1132.72 -148.569 1134.25 -148.569C1135.78 -148.569 1137.02 -147.327 1137.02 -145.796L1137.03 -144.87C1137.52 -105.772 1169.37 -74.2288 1208.59 -74.2288C1210.12 -74.2285 1211.36 -72.9876 1211.36 -71.4563Z" stroke="#82BAE9" stroke-width="3" stroke-linejoin="round"/>
</g>
<g opacity="0.78" filter="url(#filter31_f_3301_12451)">
<path d="M1211.36 226.769C1211.36 228.3 1210.12 229.542 1208.59 229.542C1169.06 229.542 1137.02 261.584 1137.02 301.109C1137.02 302.64 1135.78 303.881 1134.25 303.881C1132.72 303.881 1131.47 302.64 1131.47 301.109C1131.47 261.584 1099.43 229.542 1059.91 229.542C1058.38 229.542 1057.13 228.3 1057.13 226.769C1057.13 225.238 1058.38 223.997 1059.91 223.996C1099.43 223.996 1131.47 191.954 1131.47 152.429C1131.47 150.898 1132.72 149.656 1134.25 149.656C1135.78 149.657 1137.02 150.898 1137.02 152.429L1137.03 153.355C1137.52 192.453 1169.37 223.996 1208.59 223.996C1210.12 223.997 1211.36 225.238 1211.36 226.769Z" stroke="#82BAE9" stroke-width="3" stroke-linejoin="round"/>
</g>
<g opacity="0.5" filter="url(#filter32_f_3301_12451)">
<path d="M1211.36 377.993C1211.36 379.524 1210.12 380.766 1208.59 380.767C1169.06 380.767 1137.02 412.808 1137.02 452.333C1137.02 453.864 1135.78 455.105 1134.25 455.105C1132.72 455.105 1131.47 453.864 1131.47 452.333C1131.47 412.808 1099.43 380.767 1059.91 380.767C1058.38 380.766 1057.13 379.524 1057.13 377.993C1057.13 376.462 1058.38 375.221 1059.91 375.221C1099.43 375.221 1131.47 343.178 1131.47 303.653C1131.47 302.122 1132.72 300.881 1134.25 300.881C1135.78 300.881 1137.02 302.122 1137.02 303.653L1137.03 304.579C1137.52 343.678 1169.37 375.221 1208.59 375.221C1210.12 375.221 1211.36 376.462 1211.36 377.993Z" stroke="#82BAE9" stroke-width="3" stroke-linejoin="round"/>
</g>
<g opacity="0.5" filter="url(#filter33_f_3301_12451)">
<path d="M1211.36 524.993C1211.36 526.524 1210.12 527.766 1208.59 527.767C1169.06 527.767 1137.02 559.808 1137.02 599.333C1137.02 600.864 1135.78 602.105 1134.25 602.105C1132.72 602.105 1131.47 600.864 1131.47 599.333C1131.47 559.808 1099.43 527.767 1059.91 527.767C1058.38 527.766 1057.13 526.524 1057.13 524.993C1057.13 523.462 1058.38 522.221 1059.91 522.221C1099.43 522.221 1131.47 490.178 1131.47 450.653C1131.47 449.122 1132.72 447.881 1134.25 447.881C1135.78 447.881 1137.02 449.122 1137.02 450.653L1137.03 451.579C1137.52 490.678 1169.37 522.221 1208.59 522.221C1210.12 522.221 1211.36 523.462 1211.36 524.993Z" stroke="#82BAE9" stroke-width="3" stroke-linejoin="round"/>
</g>
<g opacity="0.5" filter="url(#filter34_f_3301_12451)">
<path d="M909.135 524.993C909.135 526.525 907.894 527.767 906.363 527.767C866.838 527.767 834.795 559.808 834.795 599.333C834.795 600.865 833.554 602.106 832.023 602.106C830.492 602.106 829.25 600.865 829.25 599.333C829.25 559.808 797.208 527.767 757.683 527.767C756.152 527.767 754.911 526.525 754.911 524.993C754.911 523.462 756.152 522.221 757.683 522.221C797.208 522.221 829.25 490.179 829.25 450.654C829.25 449.122 830.492 447.881 832.023 447.881C833.554 447.881 834.795 449.122 834.795 450.654L834.801 451.579C835.297 490.678 867.147 522.221 906.363 522.221C907.894 522.221 909.135 523.462 909.135 524.993Z" stroke="#82BAE9" stroke-width="3" stroke-linejoin="round"/>
</g>
<g opacity="0.3" filter="url(#filter35_f_3301_12451)">
<path d="M455.602 524.993C455.602 526.525 454.361 527.767 452.83 527.767C413.305 527.767 381.262 559.808 381.262 599.333C381.262 600.865 380.021 602.106 378.49 602.106C376.958 602.106 375.717 600.865 375.716 599.333C375.716 559.808 343.675 527.767 304.15 527.767C302.619 527.767 301.377 526.525 301.377 524.993C301.377 523.462 302.619 522.221 304.15 522.221C343.675 522.221 375.716 490.179 375.716 450.654C375.717 449.122 376.958 447.881 378.49 447.881C380.021 447.881 381.262 449.122 381.262 450.654L381.268 451.579C381.763 490.678 413.613 522.221 452.83 522.221C454.361 522.221 455.602 523.462 455.602 524.993Z" stroke="#82BAE9" stroke-width="3" stroke-linejoin="round"/>
</g>
<g opacity="0.3" filter="url(#filter36_f_3301_12451)">
<path d="M757.91 524.993C757.91 526.525 756.668 527.767 755.137 527.767C715.612 527.767 683.57 559.808 683.57 599.333C683.57 600.865 682.329 602.106 680.797 602.106C679.266 602.106 678.024 600.865 678.024 599.333C678.024 559.808 645.983 527.767 606.458 527.767C604.926 527.767 603.685 526.525 603.685 524.993C603.685 523.462 604.926 522.221 606.458 522.221C645.983 522.221 678.024 490.179 678.024 450.654C678.024 449.122 679.266 447.881 680.797 447.881C682.329 447.881 683.57 449.122 683.57 450.654L683.576 451.579C684.071 490.678 715.921 522.221 755.137 522.221C756.668 522.221 757.91 523.462 757.91 524.993Z" stroke="#82BAE9" stroke-width="3" stroke-linejoin="round"/>
</g>
<g opacity="0.2" filter="url(#filter37_f_3301_12451)">
<path d="M304.377 524.993C304.377 526.525 303.136 527.767 301.604 527.767C262.079 527.767 230.037 559.808 230.037 599.333C230.037 600.865 228.796 602.106 227.265 602.106C225.733 602.106 224.491 600.865 224.491 599.333C224.491 559.808 192.45 527.767 152.925 527.767C151.394 527.767 150.152 526.525 150.152 524.993C150.152 523.462 151.394 522.221 152.925 522.221C192.45 522.221 224.491 490.179 224.491 450.654C224.491 449.122 225.733 447.881 227.265 447.881C228.796 447.881 230.037 449.122 230.037 450.654L230.043 451.579C230.538 490.678 262.388 522.221 301.604 522.221C303.136 522.221 304.377 523.462 304.377 524.993Z" stroke="#82BAE9" stroke-width="3" stroke-linejoin="round"/>
</g>
<g opacity="0.3" filter="url(#filter38_f_3301_12451)">
<path d="M606.686 524.993C606.686 526.525 605.444 527.767 603.913 527.767C564.388 527.767 532.346 559.808 532.346 599.333C532.346 600.865 531.105 602.106 529.573 602.106C528.042 602.106 526.8 600.865 526.8 599.333C526.8 559.808 494.758 527.767 455.233 527.767C453.702 527.767 452.461 526.525 452.461 524.993C452.461 523.462 453.702 522.221 455.233 522.221C494.758 522.221 526.8 490.179 526.8 450.654C526.8 449.122 528.042 447.881 529.573 447.881C531.105 447.881 532.345 449.122 532.346 450.654L532.352 451.579C532.847 490.678 564.697 522.221 603.913 522.221C605.444 522.221 606.686 523.462 606.686 524.993Z" stroke="#82BAE9" stroke-width="3" stroke-linejoin="round"/>
</g>
<g opacity="0.2" filter="url(#filter39_f_3301_12451)">
<path d="M153.152 524.993C153.152 526.525 151.911 527.767 150.38 527.767C110.855 527.767 78.8125 559.808 78.8125 599.333C78.8123 600.865 77.5713 602.106 76.04 602.106C74.5087 602.106 73.2668 600.865 73.2666 599.333C73.2666 559.808 41.2253 527.767 1.7002 527.767C0.168915 527.767 -1.07226 526.525 -1.07226 524.993C-1.07223 523.462 0.168935 522.221 1.7002 522.221C41.2253 522.221 73.2666 490.179 73.2666 450.654C73.2669 449.122 74.5088 447.881 76.04 447.881C77.5713 447.881 78.8122 449.122 78.8125 450.654L78.8184 451.579C79.3138 490.678 111.164 522.221 150.38 522.221C151.911 522.221 153.152 523.462 153.152 524.993Z" stroke="#82BAE9" stroke-width="3" stroke-linejoin="round"/>
</g>
</g>
<defs>
<filter id="filter0_f_3301_12451" x="882.635" y="-25.0686" width="201.225" height="201.225" filterUnits="userSpaceOnUse" color-interpolation-filters="sRGB">
<feFlood flood-opacity="0" result="BackgroundImageFix"/>
<feBlend mode="normal" in="SourceGraphic" in2="BackgroundImageFix" result="shape"/>
<feGaussianBlur stdDeviation="11" result="effect1_foregroundBlur_3301_12451"/>
</filter>
<filter id="filter1_f_3301_12451" x="731.411" y="-25.0686" width="201.225" height="201.225" filterUnits="userSpaceOnUse" color-interpolation-filters="sRGB">
<feFlood flood-opacity="0" result="BackgroundImageFix"/>
<feBlend mode="normal" in="SourceGraphic" in2="BackgroundImageFix" result="shape"/>
<feGaussianBlur stdDeviation="11" result="effect1_foregroundBlur_3301_12451"/>
</filter>
<filter id="filter2_f_3301_12451" x="277.877" y="-25.0686" width="201.225" height="201.225" filterUnits="userSpaceOnUse" color-interpolation-filters="sRGB">
<feFlood flood-opacity="0" result="BackgroundImageFix"/>
<feBlend mode="normal" in="SourceGraphic" in2="BackgroundImageFix" result="shape"/>
<feGaussianBlur stdDeviation="11" result="effect1_foregroundBlur_3301_12451"/>
</filter>
<filter id="filter3_f_3301_12451" x="580.185" y="-25.0686" width="201.225" height="201.225" filterUnits="userSpaceOnUse" color-interpolation-filters="sRGB">
<feFlood flood-opacity="0" result="BackgroundImageFix"/>
<feBlend mode="normal" in="SourceGraphic" in2="BackgroundImageFix" result="shape"/>
<feGaussianBlur stdDeviation="11" result="effect1_foregroundBlur_3301_12451"/>
</filter>
<filter id="filter4_f_3301_12451" x="126.652" y="-25.0686" width="201.225" height="201.225" filterUnits="userSpaceOnUse" color-interpolation-filters="sRGB">
<feFlood flood-opacity="0" result="BackgroundImageFix"/>
<feBlend mode="normal" in="SourceGraphic" in2="BackgroundImageFix" result="shape"/>
<feGaussianBlur stdDeviation="11" result="effect1_foregroundBlur_3301_12451"/>
</filter>
<filter id="filter5_f_3301_12451" x="428.961" y="-25.0686" width="201.225" height="201.225" filterUnits="userSpaceOnUse" color-interpolation-filters="sRGB">
<feFlood flood-opacity="0" result="BackgroundImageFix"/>
<feBlend mode="normal" in="SourceGraphic" in2="BackgroundImageFix" result="shape"/>
<feGaussianBlur stdDeviation="11" result="effect1_foregroundBlur_3301_12451"/>
</filter>
<filter id="filter6_f_3301_12451" x="-24.5723" y="-25.0686" width="201.225" height="201.225" filterUnits="userSpaceOnUse" color-interpolation-filters="sRGB">
<feFlood flood-opacity="0" result="BackgroundImageFix"/>
<feBlend mode="normal" in="SourceGraphic" in2="BackgroundImageFix" result="shape"/>
<feGaussianBlur stdDeviation="11" result="effect1_foregroundBlur_3301_12451"/>
</filter>
<filter id="filter7_f_3301_12451" x="882.635" y="-172.069" width="201.225" height="201.225" filterUnits="userSpaceOnUse" color-interpolation-filters="sRGB">
<feFlood flood-opacity="0" result="BackgroundImageFix"/>
<feBlend mode="normal" in="SourceGraphic" in2="BackgroundImageFix" result="shape"/>
<feGaussianBlur stdDeviation="11" result="effect1_foregroundBlur_3301_12451"/>
</filter>
<filter id="filter8_f_3301_12451" x="731.411" y="-172.069" width="201.225" height="201.225" filterUnits="userSpaceOnUse" color-interpolation-filters="sRGB">
<feFlood flood-opacity="0" result="BackgroundImageFix"/>
<feBlend mode="normal" in="SourceGraphic" in2="BackgroundImageFix" result="shape"/>
<feGaussianBlur stdDeviation="11" result="effect1_foregroundBlur_3301_12451"/>
</filter>
<filter id="filter9_f_3301_12451" x="277.877" y="-172.069" width="201.225" height="201.225" filterUnits="userSpaceOnUse" color-interpolation-filters="sRGB">
<feFlood flood-opacity="0" result="BackgroundImageFix"/>
<feBlend mode="normal" in="SourceGraphic" in2="BackgroundImageFix" result="shape"/>
<feGaussianBlur stdDeviation="11" result="effect1_foregroundBlur_3301_12451"/>
</filter>
<filter id="filter10_f_3301_12451" x="580.185" y="-172.069" width="201.225" height="201.225" filterUnits="userSpaceOnUse" color-interpolation-filters="sRGB">
<feFlood flood-opacity="0" result="BackgroundImageFix"/>
<feBlend mode="normal" in="SourceGraphic" in2="BackgroundImageFix" result="shape"/>
<feGaussianBlur stdDeviation="11" result="effect1_foregroundBlur_3301_12451"/>
</filter>
<filter id="filter11_f_3301_12451" x="126.652" y="-172.069" width="201.225" height="201.225" filterUnits="userSpaceOnUse" color-interpolation-filters="sRGB">
<feFlood flood-opacity="0" result="BackgroundImageFix"/>
<feBlend mode="normal" in="SourceGraphic" in2="BackgroundImageFix" result="shape"/>
<feGaussianBlur stdDeviation="11" result="effect1_foregroundBlur_3301_12451"/>
</filter>
<filter id="filter12_f_3301_12451" x="428.961" y="-172.069" width="201.225" height="201.225" filterUnits="userSpaceOnUse" color-interpolation-filters="sRGB">
<feFlood flood-opacity="0" result="BackgroundImageFix"/>
<feBlend mode="normal" in="SourceGraphic" in2="BackgroundImageFix" result="shape"/>
<feGaussianBlur stdDeviation="11" result="effect1_foregroundBlur_3301_12451"/>
</filter>
<filter id="filter13_f_3301_12451" x="-24.5723" y="-172.069" width="201.225" height="201.225" filterUnits="userSpaceOnUse" color-interpolation-filters="sRGB">
<feFlood flood-opacity="0" result="BackgroundImageFix"/>
<feBlend mode="normal" in="SourceGraphic" in2="BackgroundImageFix" result="shape"/>
<feGaussianBlur stdDeviation="11" result="effect1_foregroundBlur_3301_12451"/>
</filter>
<filter id="filter14_f_3301_12451" x="882.635" y="126.156" width="201.225" height="201.225" filterUnits="userSpaceOnUse" color-interpolation-filters="sRGB">
<feFlood flood-opacity="0" result="BackgroundImageFix"/>
<feBlend mode="normal" in="SourceGraphic" in2="BackgroundImageFix" result="shape"/>
<feGaussianBlur stdDeviation="11" result="effect1_foregroundBlur_3301_12451"/>
</filter>
<filter id="filter15_f_3301_12451" x="730.658" y="125.403" width="202.73" height="202.73" filterUnits="userSpaceOnUse" color-interpolation-filters="sRGB">
<feFlood flood-opacity="0" result="BackgroundImageFix"/>
<feBlend mode="normal" in="SourceGraphic" in2="BackgroundImageFix" result="shape"/>
<feGaussianBlur stdDeviation="11.3763" result="effect1_foregroundBlur_3301_12451"/>
</filter>
<filter id="filter16_f_3301_12451" x="279.877" y="128.156" width="197.225" height="197.225" filterUnits="userSpaceOnUse" color-interpolation-filters="sRGB">
<feFlood flood-opacity="0" result="BackgroundImageFix"/>
<feBlend mode="normal" in="SourceGraphic" in2="BackgroundImageFix" result="shape"/>
<feGaussianBlur stdDeviation="10" result="effect1_foregroundBlur_3301_12451"/>
</filter>
<filter id="filter17_f_3301_12451" x="582.185" y="128.156" width="197.225" height="197.225" filterUnits="userSpaceOnUse" color-interpolation-filters="sRGB">
<feFlood flood-opacity="0" result="BackgroundImageFix"/>
<feBlend mode="normal" in="SourceGraphic" in2="BackgroundImageFix" result="shape"/>
<feGaussianBlur stdDeviation="10" result="effect1_foregroundBlur_3301_12451"/>
</filter>
<filter id="filter18_f_3301_12451" x="128.652" y="128.156" width="197.225" height="197.225" filterUnits="userSpaceOnUse" color-interpolation-filters="sRGB">
<feFlood flood-opacity="0" result="BackgroundImageFix"/>
<feBlend mode="normal" in="SourceGraphic" in2="BackgroundImageFix" result="shape"/>
<feGaussianBlur stdDeviation="10" result="effect1_foregroundBlur_3301_12451"/>
</filter>
<filter id="filter19_f_3301_12451" x="430.961" y="128.156" width="197.225" height="197.225" filterUnits="userSpaceOnUse" color-interpolation-filters="sRGB">
<feFlood flood-opacity="0" result="BackgroundImageFix"/>
<feBlend mode="normal" in="SourceGraphic" in2="BackgroundImageFix" result="shape"/>
<feGaussianBlur stdDeviation="10" result="effect1_foregroundBlur_3301_12451"/>
</filter>
<filter id="filter20_f_3301_12451" x="-24.5723" y="126.156" width="201.225" height="201.225" filterUnits="userSpaceOnUse" color-interpolation-filters="sRGB">
<feFlood flood-opacity="0" result="BackgroundImageFix"/>
<feBlend mode="normal" in="SourceGraphic" in2="BackgroundImageFix" result="shape"/>
<feGaussianBlur stdDeviation="11" result="effect1_foregroundBlur_3301_12451"/>
</filter>
<filter id="filter21_f_3301_12451" x="882.635" y="277.381" width="201.225" height="201.225" filterUnits="userSpaceOnUse" color-interpolation-filters="sRGB">
<feFlood flood-opacity="0" result="BackgroundImageFix"/>
<feBlend mode="normal" in="SourceGraphic" in2="BackgroundImageFix" result="shape"/>
<feGaussianBlur stdDeviation="11" result="effect1_foregroundBlur_3301_12451"/>
</filter>
<filter id="filter22_f_3301_12451" x="733.411" y="279.381" width="197.225" height="197.225" filterUnits="userSpaceOnUse" color-interpolation-filters="sRGB">
<feFlood flood-opacity="0" result="BackgroundImageFix"/>
<feBlend mode="normal" in="SourceGraphic" in2="BackgroundImageFix" result="shape"/>
<feGaussianBlur stdDeviation="10" result="effect1_foregroundBlur_3301_12451"/>
</filter>
<filter id="filter23_f_3301_12451" x="279.877" y="279.381" width="197.225" height="197.225" filterUnits="userSpaceOnUse" color-interpolation-filters="sRGB">
<feFlood flood-opacity="0" result="BackgroundImageFix"/>
<feBlend mode="normal" in="SourceGraphic" in2="BackgroundImageFix" result="shape"/>
<feGaussianBlur stdDeviation="10" result="effect1_foregroundBlur_3301_12451"/>
</filter>
<filter id="filter24_f_3301_12451" x="593.685" y="290.881" width="174.225" height="174.225" filterUnits="userSpaceOnUse" color-interpolation-filters="sRGB">
<feFlood flood-opacity="0" result="BackgroundImageFix"/>
<feBlend mode="normal" in="SourceGraphic" in2="BackgroundImageFix" result="shape"/>
<feGaussianBlur stdDeviation="4.25" result="effect1_foregroundBlur_3301_12451"/>
</filter>
<filter id="filter25_f_3301_12451" x="128.652" y="279.381" width="197.225" height="197.225" filterUnits="userSpaceOnUse" color-interpolation-filters="sRGB">
<feFlood flood-opacity="0" result="BackgroundImageFix"/>
<feBlend mode="normal" in="SourceGraphic" in2="BackgroundImageFix" result="shape"/>
<feGaussianBlur stdDeviation="10" result="effect1_foregroundBlur_3301_12451"/>
</filter>
<filter id="filter26_f_3301_12451" x="442.461" y="290.881" width="174.225" height="174.225" filterUnits="userSpaceOnUse" color-interpolation-filters="sRGB">
<feFlood flood-opacity="0" result="BackgroundImageFix"/>
<feBlend mode="normal" in="SourceGraphic" in2="BackgroundImageFix" result="shape"/>
<feGaussianBlur stdDeviation="4.25" result="effect1_foregroundBlur_3301_12451"/>
</filter>
<filter id="filter27_f_3301_12451" x="-24.5723" y="277.381" width="201.225" height="201.225" filterUnits="userSpaceOnUse" color-interpolation-filters="sRGB">
<feFlood flood-opacity="0" result="BackgroundImageFix"/>
<feBlend mode="normal" in="SourceGraphic" in2="BackgroundImageFix" result="shape"/>
<feGaussianBlur stdDeviation="11" result="effect1_foregroundBlur_3301_12451"/>
</filter>
<filter id="filter28_f_3301_12451" x="882.635" y="424.381" width="201.225" height="201.225" filterUnits="userSpaceOnUse" color-interpolation-filters="sRGB">
<feFlood flood-opacity="0" result="BackgroundImageFix"/>
<feBlend mode="normal" in="SourceGraphic" in2="BackgroundImageFix" result="shape"/>
<feGaussianBlur stdDeviation="11" result="effect1_foregroundBlur_3301_12451"/>
</filter>
<filter id="filter29_f_3301_12451" x="1033.63" y="-25.0686" width="201.225" height="201.225" filterUnits="userSpaceOnUse" color-interpolation-filters="sRGB">
<feFlood flood-opacity="0" result="BackgroundImageFix"/>
<feBlend mode="normal" in="SourceGraphic" in2="BackgroundImageFix" result="shape"/>
<feGaussianBlur stdDeviation="11" result="effect1_foregroundBlur_3301_12451"/>
</filter>
<filter id="filter30_f_3301_12451" x="1033.63" y="-172.069" width="201.225" height="201.225" filterUnits="userSpaceOnUse" color-interpolation-filters="sRGB">
<feFlood flood-opacity="0" result="BackgroundImageFix"/>
<feBlend mode="normal" in="SourceGraphic" in2="BackgroundImageFix" result="shape"/>
<feGaussianBlur stdDeviation="11" result="effect1_foregroundBlur_3301_12451"/>
</filter>
<filter id="filter31_f_3301_12451" x="1033.63" y="126.156" width="201.225" height="201.225" filterUnits="userSpaceOnUse" color-interpolation-filters="sRGB">
<feFlood flood-opacity="0" result="BackgroundImageFix"/>
<feBlend mode="normal" in="SourceGraphic" in2="BackgroundImageFix" result="shape"/>
<feGaussianBlur stdDeviation="11" result="effect1_foregroundBlur_3301_12451"/>
</filter>
<filter id="filter32_f_3301_12451" x="1033.63" y="277.381" width="201.225" height="201.225" filterUnits="userSpaceOnUse" color-interpolation-filters="sRGB">
<feFlood flood-opacity="0" result="BackgroundImageFix"/>
<feBlend mode="normal" in="SourceGraphic" in2="BackgroundImageFix" result="shape"/>
<feGaussianBlur stdDeviation="11" result="effect1_foregroundBlur_3301_12451"/>
</filter>
<filter id="filter33_f_3301_12451" x="1033.63" y="424.381" width="201.225" height="201.225" filterUnits="userSpaceOnUse" color-interpolation-filters="sRGB">
<feFlood flood-opacity="0" result="BackgroundImageFix"/>
<feBlend mode="normal" in="SourceGraphic" in2="BackgroundImageFix" result="shape"/>
<feGaussianBlur stdDeviation="11" result="effect1_foregroundBlur_3301_12451"/>
</filter>
<filter id="filter34_f_3301_12451" x="731.411" y="424.381" width="201.225" height="201.225" filterUnits="userSpaceOnUse" color-interpolation-filters="sRGB">
<feFlood flood-opacity="0" result="BackgroundImageFix"/>
<feBlend mode="normal" in="SourceGraphic" in2="BackgroundImageFix" result="shape"/>
<feGaussianBlur stdDeviation="11" result="effect1_foregroundBlur_3301_12451"/>
</filter>
<filter id="filter35_f_3301_12451" x="277.877" y="424.381" width="201.225" height="201.225" filterUnits="userSpaceOnUse" color-interpolation-filters="sRGB">
<feFlood flood-opacity="0" result="BackgroundImageFix"/>
<feBlend mode="normal" in="SourceGraphic" in2="BackgroundImageFix" result="shape"/>
<feGaussianBlur stdDeviation="11" result="effect1_foregroundBlur_3301_12451"/>
</filter>
<filter id="filter36_f_3301_12451" x="580.185" y="424.381" width="201.225" height="201.225" filterUnits="userSpaceOnUse" color-interpolation-filters="sRGB">
<feFlood flood-opacity="0" result="BackgroundImageFix"/>
<feBlend mode="normal" in="SourceGraphic" in2="BackgroundImageFix" result="shape"/>
<feGaussianBlur stdDeviation="11" result="effect1_foregroundBlur_3301_12451"/>
</filter>
<filter id="filter37_f_3301_12451" x="126.652" y="424.381" width="201.225" height="201.225" filterUnits="userSpaceOnUse" color-interpolation-filters="sRGB">
<feFlood flood-opacity="0" result="BackgroundImageFix"/>
<feBlend mode="normal" in="SourceGraphic" in2="BackgroundImageFix" result="shape"/>
<feGaussianBlur stdDeviation="11" result="effect1_foregroundBlur_3301_12451"/>
</filter>
<filter id="filter38_f_3301_12451" x="428.961" y="424.381" width="201.225" height="201.225" filterUnits="userSpaceOnUse" color-interpolation-filters="sRGB">
<feFlood flood-opacity="0" result="BackgroundImageFix"/>
<feBlend mode="normal" in="SourceGraphic" in2="BackgroundImageFix" result="shape"/>
<feGaussianBlur stdDeviation="11" result="effect1_foregroundBlur_3301_12451"/>
</filter>
<filter id="filter39_f_3301_12451" x="-24.5723" y="424.381" width="201.225" height="201.225" filterUnits="userSpaceOnUse" color-interpolation-filters="sRGB">
<feFlood flood-opacity="0" result="BackgroundImageFix"/>
<feBlend mode="normal" in="SourceGraphic" in2="BackgroundImageFix" result="shape"/>
<feGaussianBlur stdDeviation="11" result="effect1_foregroundBlur_3301_12451"/>
</filter>
<clipPath id="clip0_3301_12451">
<rect width="1059" height="601" fill="white" transform="matrix(-1 0 0 -1 1059 601)"/>
</clipPath>
</defs>
</svg>
