<svg width="32" height="9" viewBox="0 0 32 9" fill="none" xmlns="http://www.w3.org/2000/svg">
<mask id="mask0_3308_12589" style="mask-type:alpha" maskUnits="userSpaceOnUse" x="0" y="0" width="32" height="9">
<path d="M8.89356 2.2879C8.91432 2.2879 8.93115 2.27094 8.93115 2.25002C8.93115 2.2291 8.91432 2.21214 8.89356 2.21214C7.70193 2.21214 6.73591 1.23869 6.73591 0.0378792C6.73591 0.0169592 6.71908 9.66926e-08 6.69832 9.76e-08C6.67756 9.85075e-08 6.66073 0.0169592 6.66073 0.0378792C6.66073 1.23869 5.69472 2.21214 4.50309 2.21214C4.48233 2.21214 4.4655 2.2291 4.4655 2.25002C4.4655 2.27094 4.48233 2.2879 4.50309 2.2879C5.69472 2.2879 6.66073 3.26135 6.66073 4.46216C6.66073 4.48308 6.67756 4.50004 6.69832 4.50004C6.71908 4.50004 6.73591 4.48308 6.73591 4.46216C6.73591 3.26135 7.70193 2.2879 8.89356 2.2879Z" fill="black"/>
<path d="M8.89356 2.2879C8.91432 2.2879 8.93115 2.27094 8.93115 2.25002C8.93115 2.2291 8.91432 2.21214 8.89356 2.21214C7.70193 2.21214 6.73591 1.23869 6.73591 0.0378792C6.73591 0.0169592 6.71908 9.66926e-08 6.69832 9.76e-08C6.67756 9.85075e-08 6.66073 0.0169592 6.66073 0.0378792C6.66073 1.23869 5.69472 2.21214 4.50309 2.21214C4.48233 2.21214 4.4655 2.2291 4.4655 2.25002C4.4655 2.27094 4.48233 2.2879 4.50309 2.2879C5.69472 2.2879 6.66073 3.26135 6.66073 4.46216C6.66073 4.48308 6.67756 4.50004 6.69832 4.50004C6.71908 4.50004 6.73591 4.48308 6.73591 4.46216C6.73591 3.26135 7.70193 2.2879 8.89356 2.2879Z" fill="url(#paint0_linear_3308_12589)"/>
<path d="M4.42823 2.2879C4.44899 2.2879 4.46582 2.27094 4.46582 2.25002C4.46582 2.2291 4.44899 2.21214 4.42823 2.21214C3.23659 2.21214 2.27058 1.23869 2.27058 0.0378792C2.27058 0.0169592 2.25375 9.66926e-08 2.23299 9.76e-08C2.21223 9.85075e-08 2.1954 0.0169592 2.1954 0.0378792C2.1954 1.23869 1.22939 2.21214 0.0377537 2.21214C0.0169936 2.21214 0.0001641 2.2291 0.000164101 2.25002C0.000164102 2.27094 0.0169936 2.2879 0.0377537 2.2879C1.22939 2.2879 2.1954 3.26135 2.1954 4.46216C2.1954 4.48308 2.21223 4.50004 2.23299 4.50004C2.25375 4.50004 2.27058 4.48308 2.27058 4.46216C2.27058 3.26135 3.23659 2.2879 4.42823 2.2879Z" fill="black"/>
<path d="M4.42823 2.2879C4.44899 2.2879 4.46582 2.27094 4.46582 2.25002C4.46582 2.2291 4.44899 2.21214 4.42823 2.21214C3.23659 2.21214 2.27058 1.23869 2.27058 0.0378792C2.27058 0.0169592 2.25375 9.66926e-08 2.23299 9.76e-08C2.21223 9.85075e-08 2.1954 0.0169592 2.1954 0.0378792C2.1954 1.23869 1.22939 2.21214 0.0377537 2.21214C0.0169936 2.21214 0.0001641 2.2291 0.000164101 2.25002C0.000164102 2.27094 0.0169936 2.2879 0.0377537 2.2879C1.22939 2.2879 2.1954 3.26135 2.1954 4.46216C2.1954 4.48308 2.21223 4.50004 2.23299 4.50004C2.25375 4.50004 2.27058 4.48308 2.27058 4.46216C2.27058 3.26135 3.23659 2.2879 4.42823 2.2879Z" fill="url(#paint1_linear_3308_12589)"/>
<path d="M8.89356 6.7879C8.91432 6.7879 8.93115 6.77094 8.93115 6.75002C8.93115 6.7291 8.91432 6.71214 8.89356 6.71214C7.70193 6.71214 6.73591 5.73869 6.73591 4.53788C6.73591 4.51696 6.71908 4.5 6.69832 4.5C6.67756 4.5 6.66073 4.51696 6.66073 4.53788C6.66073 5.73869 5.69472 6.71214 4.50309 6.71214C4.48233 6.71214 4.4655 6.7291 4.4655 6.75002C4.4655 6.77094 4.48233 6.7879 4.50309 6.7879C5.69472 6.7879 6.66073 7.76135 6.66073 8.96216C6.66073 8.98308 6.67756 9.00004 6.69832 9.00004C6.71908 9.00004 6.73591 8.98308 6.73591 8.96216C6.73591 7.76135 7.70193 6.7879 8.89356 6.7879Z" fill="black"/>
<path d="M8.89356 6.7879C8.91432 6.7879 8.93115 6.77094 8.93115 6.75002C8.93115 6.7291 8.91432 6.71214 8.89356 6.71214C7.70193 6.71214 6.73591 5.73869 6.73591 4.53788C6.73591 4.51696 6.71908 4.5 6.69832 4.5C6.67756 4.5 6.66073 4.51696 6.66073 4.53788C6.66073 5.73869 5.69472 6.71214 4.50309 6.71214C4.48233 6.71214 4.4655 6.7291 4.4655 6.75002C4.4655 6.77094 4.48233 6.7879 4.50309 6.7879C5.69472 6.7879 6.66073 7.76135 6.66073 8.96216C6.66073 8.98308 6.67756 9.00004 6.69832 9.00004C6.71908 9.00004 6.73591 8.98308 6.73591 8.96216C6.73591 7.76135 7.70193 6.7879 8.89356 6.7879Z" fill="url(#paint2_linear_3308_12589)"/>
<path d="M4.42823 6.7879C4.44899 6.7879 4.46582 6.77094 4.46582 6.75002C4.46582 6.7291 4.44899 6.71214 4.42823 6.71214C3.23659 6.71214 2.27058 5.73869 2.27058 4.53788C2.27058 4.51696 2.25375 4.5 2.23299 4.5C2.21223 4.5 2.1954 4.51696 2.1954 4.53788C2.1954 5.73869 1.22939 6.71214 0.0377537 6.71214C0.0169936 6.71214 0.000164099 6.7291 0.0001641 6.75002C0.000164101 6.77094 0.0169936 6.7879 0.0377537 6.7879C1.22939 6.7879 2.1954 7.76135 2.1954 8.96216C2.1954 8.98308 2.21223 9.00004 2.23299 9.00004C2.25375 9.00004 2.27058 8.98308 2.27058 8.96216C2.27058 7.76135 3.23659 6.7879 4.42823 6.7879Z" fill="black"/>
<path d="M4.42823 6.7879C4.44899 6.7879 4.46582 6.77094 4.46582 6.75002C4.46582 6.7291 4.44899 6.71214 4.42823 6.71214C3.23659 6.71214 2.27058 5.73869 2.27058 4.53788C2.27058 4.51696 2.25375 4.5 2.23299 4.5C2.21223 4.5 2.1954 4.51696 2.1954 4.53788C2.1954 5.73869 1.22939 6.71214 0.0377537 6.71214C0.0169936 6.71214 0.000164099 6.7291 0.0001641 6.75002C0.000164101 6.77094 0.0169936 6.7879 0.0377537 6.7879C1.22939 6.7879 2.1954 7.76135 2.1954 8.96216C2.1954 8.98308 2.21223 9.00004 2.23299 9.00004C2.25375 9.00004 2.27058 8.98308 2.27058 8.96216C2.27058 7.76135 3.23659 6.7879 4.42823 6.7879Z" fill="url(#paint3_linear_3308_12589)"/>
<path d="M30.9819 6.57703V5.55103H32.0001V6.57703H30.9819Z" fill="black"/>
<path d="M30.9819 6.57703V5.55103H32.0001V6.57703H30.9819Z" fill="url(#paint4_linear_3308_12589)"/>
<path d="M28.1841 6.57695V2.09076H29.0621V3.18323L28.9549 3.042C29.0099 2.89246 29.0827 2.75676 29.1734 2.63492C29.2668 2.5103 29.3781 2.40784 29.5073 2.32753C29.6172 2.25276 29.7381 2.1946 29.87 2.15307C30.0047 2.10876 30.1421 2.08245 30.2823 2.07414C30.4224 2.06307 30.5584 2.0686 30.6903 2.09076V3.02538C30.5584 2.98661 30.4059 2.97415 30.2328 2.988C30.0624 3.00184 29.9085 3.0503 29.7711 3.13338C29.6337 3.20815 29.521 3.30369 29.4331 3.42C29.3479 3.53631 29.2847 3.66923 29.2435 3.81877C29.2023 3.96554 29.1816 4.12478 29.1816 4.29647V6.57695H28.1841Z" fill="black"/>
<path d="M28.1841 6.57695V2.09076H29.0621V3.18323L28.9549 3.042C29.0099 2.89246 29.0827 2.75676 29.1734 2.63492C29.2668 2.5103 29.3781 2.40784 29.5073 2.32753C29.6172 2.25276 29.7381 2.1946 29.87 2.15307C30.0047 2.10876 30.1421 2.08245 30.2823 2.07414C30.4224 2.06307 30.5584 2.0686 30.6903 2.09076V3.02538C30.5584 2.98661 30.4059 2.97415 30.2328 2.988C30.0624 3.00184 29.9085 3.0503 29.7711 3.13338C29.6337 3.20815 29.521 3.30369 29.4331 3.42C29.3479 3.53631 29.2847 3.66923 29.2435 3.81877C29.2023 3.96554 29.1816 4.12478 29.1816 4.29647V6.57695H28.1841Z" fill="url(#paint5_linear_3308_12589)"/>
<path d="M26.1026 6.57688V4.41686C26.1026 4.27563 26.093 4.11916 26.0738 3.94747C26.0545 3.77578 26.0092 3.61101 25.9377 3.45316C25.869 3.29254 25.7646 3.161 25.6245 3.05854C25.487 2.95608 25.3002 2.90485 25.0638 2.90485C24.9374 2.90485 24.8124 2.92561 24.6887 2.96715C24.5651 3.00869 24.4524 3.08069 24.3507 3.18316C24.2518 3.28285 24.1721 3.42131 24.1116 3.59854C24.0512 3.77301 24.0209 3.99732 24.0209 4.27147L23.4315 4.01809C23.4315 3.63593 23.5043 3.28977 23.6499 2.97962C23.7983 2.66946 24.0154 2.423 24.3012 2.24022C24.587 2.05468 24.9388 1.96191 25.3565 1.96191C25.6863 1.96191 25.9583 2.0173 26.1727 2.12807C26.3871 2.23884 26.5574 2.38007 26.6838 2.55177C26.8103 2.72346 26.9037 2.90623 26.9642 3.10008C27.0246 3.29393 27.0631 3.47808 27.0796 3.65254C27.0988 3.82424 27.1084 3.96409 27.1084 4.07209V6.57688H26.1026ZM23.0151 6.57688V2.09068H23.9014V3.48224H24.0209V6.57688H23.0151Z" fill="black"/>
<path d="M26.1026 6.57688V4.41686C26.1026 4.27563 26.093 4.11916 26.0738 3.94747C26.0545 3.77578 26.0092 3.61101 25.9377 3.45316C25.869 3.29254 25.7646 3.161 25.6245 3.05854C25.487 2.95608 25.3002 2.90485 25.0638 2.90485C24.9374 2.90485 24.8124 2.92561 24.6887 2.96715C24.5651 3.00869 24.4524 3.08069 24.3507 3.18316C24.2518 3.28285 24.1721 3.42131 24.1116 3.59854C24.0512 3.77301 24.0209 3.99732 24.0209 4.27147L23.4315 4.01809C23.4315 3.63593 23.5043 3.28977 23.6499 2.97962C23.7983 2.66946 24.0154 2.423 24.3012 2.24022C24.587 2.05468 24.9388 1.96191 25.3565 1.96191C25.6863 1.96191 25.9583 2.0173 26.1727 2.12807C26.3871 2.23884 26.5574 2.38007 26.6838 2.55177C26.8103 2.72346 26.9037 2.90623 26.9642 3.10008C27.0246 3.29393 27.0631 3.47808 27.0796 3.65254C27.0988 3.82424 27.1084 3.96409 27.1084 4.07209V6.57688H26.1026ZM23.0151 6.57688V2.09068H23.9014V3.48224H24.0209V6.57688H23.0151Z" fill="url(#paint6_linear_3308_12589)"/>
<path d="M19.5181 6.70149C19.1966 6.70149 18.9245 6.64057 18.7019 6.51872C18.4793 6.3941 18.3103 6.22933 18.1949 6.02441C18.0822 5.81948 18.0259 5.59379 18.0259 5.34733C18.0259 5.13132 18.0616 4.93748 18.1331 4.76578C18.2045 4.59132 18.3144 4.44178 18.4628 4.31716C18.6112 4.18978 18.8036 4.08593 19.0399 4.00562C19.2186 3.94747 19.4274 3.89485 19.6665 3.84777C19.9083 3.8007 20.1694 3.75777 20.4497 3.719C20.7328 3.67746 21.0282 3.63316 21.336 3.58608L20.9815 3.78962C20.9842 3.47946 20.9155 3.251 20.7753 3.10423C20.6352 2.95746 20.3989 2.88407 20.0663 2.88407C19.8657 2.88407 19.672 2.93115 19.4851 3.0253C19.2982 3.11946 19.1677 3.28146 19.0935 3.51131L18.1866 3.22469C18.2966 2.8453 18.5054 2.54068 18.8132 2.31084C19.1237 2.08099 19.5415 1.96606 20.0663 1.96606C20.4621 1.96606 20.8097 2.03114 21.1092 2.1613C21.4115 2.29145 21.6355 2.50468 21.7812 2.80099C21.8608 2.95884 21.9089 3.12084 21.9254 3.287C21.9419 3.45039 21.9502 3.629 21.9502 3.82285V6.57687H21.0804V5.60487L21.2247 5.76271C21.0241 6.08672 20.7891 6.32487 20.5198 6.47718C20.2532 6.62672 19.9193 6.70149 19.5181 6.70149ZM19.716 5.90395C19.9413 5.90395 20.1337 5.86379 20.2931 5.78348C20.4524 5.70317 20.5789 5.60487 20.6723 5.48856C20.7685 5.37225 20.8331 5.26286 20.866 5.1604C20.9182 5.03301 20.9471 4.88763 20.9526 4.72424C20.9608 4.55809 20.965 4.42378 20.965 4.32132L21.27 4.4127C20.9705 4.45978 20.7135 4.50132 20.4992 4.53732C20.2848 4.57332 20.1007 4.60793 19.9468 4.64116C19.7929 4.67163 19.6569 4.70624 19.5387 4.74501C19.4233 4.78655 19.3257 4.83501 19.246 4.8904C19.1663 4.94578 19.1045 5.00948 19.0605 5.08148C19.0193 5.15348 18.9987 5.23794 18.9987 5.33486C18.9987 5.44563 19.0262 5.54394 19.0811 5.62979C19.1361 5.71287 19.2158 5.77933 19.3202 5.82918C19.4274 5.87902 19.5593 5.90395 19.716 5.90395Z" fill="black"/>
<path d="M19.5181 6.70149C19.1966 6.70149 18.9245 6.64057 18.7019 6.51872C18.4793 6.3941 18.3103 6.22933 18.1949 6.02441C18.0822 5.81948 18.0259 5.59379 18.0259 5.34733C18.0259 5.13132 18.0616 4.93748 18.1331 4.76578C18.2045 4.59132 18.3144 4.44178 18.4628 4.31716C18.6112 4.18978 18.8036 4.08593 19.0399 4.00562C19.2186 3.94747 19.4274 3.89485 19.6665 3.84777C19.9083 3.8007 20.1694 3.75777 20.4497 3.719C20.7328 3.67746 21.0282 3.63316 21.336 3.58608L20.9815 3.78962C20.9842 3.47946 20.9155 3.251 20.7753 3.10423C20.6352 2.95746 20.3989 2.88407 20.0663 2.88407C19.8657 2.88407 19.672 2.93115 19.4851 3.0253C19.2982 3.11946 19.1677 3.28146 19.0935 3.51131L18.1866 3.22469C18.2966 2.8453 18.5054 2.54068 18.8132 2.31084C19.1237 2.08099 19.5415 1.96606 20.0663 1.96606C20.4621 1.96606 20.8097 2.03114 21.1092 2.1613C21.4115 2.29145 21.6355 2.50468 21.7812 2.80099C21.8608 2.95884 21.9089 3.12084 21.9254 3.287C21.9419 3.45039 21.9502 3.629 21.9502 3.82285V6.57687H21.0804V5.60487L21.2247 5.76271C21.0241 6.08672 20.7891 6.32487 20.5198 6.47718C20.2532 6.62672 19.9193 6.70149 19.5181 6.70149ZM19.716 5.90395C19.9413 5.90395 20.1337 5.86379 20.2931 5.78348C20.4524 5.70317 20.5789 5.60487 20.6723 5.48856C20.7685 5.37225 20.8331 5.26286 20.866 5.1604C20.9182 5.03301 20.9471 4.88763 20.9526 4.72424C20.9608 4.55809 20.965 4.42378 20.965 4.32132L21.27 4.4127C20.9705 4.45978 20.7135 4.50132 20.4992 4.53732C20.2848 4.57332 20.1007 4.60793 19.9468 4.64116C19.7929 4.67163 19.6569 4.70624 19.5387 4.74501C19.4233 4.78655 19.3257 4.83501 19.246 4.8904C19.1663 4.94578 19.1045 5.00948 19.0605 5.08148C19.0193 5.15348 18.9987 5.23794 18.9987 5.33486C18.9987 5.44563 19.0262 5.54394 19.0811 5.62979C19.1361 5.71287 19.2158 5.77933 19.3202 5.82918C19.4274 5.87902 19.5593 5.90395 19.716 5.90395Z" fill="url(#paint7_linear_3308_12589)"/>
<path d="M16.0449 6.57691V0.470703H17.0384V6.57691H16.0449Z" fill="black"/>
<path d="M16.0449 6.57691V0.470703H17.0384V6.57691H16.0449Z" fill="url(#paint8_linear_3308_12589)"/>
<path d="M13.0217 6.70149C12.5875 6.70149 12.2233 6.59764 11.9293 6.38995C11.6352 6.18226 11.414 5.89979 11.2656 5.54256C11.1172 5.18255 11.043 4.77963 11.043 4.33378C11.043 3.88239 11.1172 3.47808 11.2656 3.12084C11.414 2.76361 11.6311 2.48253 11.9169 2.27761C12.2055 2.06991 12.5614 1.96606 12.9846 1.96606C13.405 1.96606 13.7691 2.06991 14.0769 2.27761C14.3875 2.48253 14.6279 2.76361 14.7983 3.12084C14.9687 3.47531 15.0539 3.87962 15.0539 4.33378C15.0539 4.7824 14.9701 5.18532 14.8024 5.54256C14.6348 5.89979 14.3985 6.18226 14.0934 6.38995C13.7884 6.59764 13.4311 6.70149 13.0217 6.70149ZM10.874 8.57074V2.09068H11.752V5.23932H11.8757V8.57074H10.874ZM12.8691 5.80425C13.1275 5.80425 13.3404 5.73918 13.5081 5.60902C13.6757 5.47887 13.7994 5.30302 13.8791 5.08148C13.9615 4.85717 14.0027 4.60793 14.0027 4.33378C14.0027 4.06239 13.9615 3.81593 13.8791 3.59439C13.7966 3.37008 13.6688 3.19284 13.4957 3.06269C13.3226 2.92977 13.1027 2.8633 12.8362 2.8633C12.5833 2.8633 12.3772 2.92561 12.2178 3.05023C12.0585 3.17207 11.9403 3.34377 11.8633 3.56531C11.7891 3.78408 11.752 4.04024 11.752 4.33378C11.752 4.62455 11.7891 4.88071 11.8633 5.10225C11.9403 5.32379 12.0598 5.49687 12.222 5.62148C12.3869 5.74333 12.6026 5.80425 12.8691 5.80425Z" fill="black"/>
<path d="M13.0217 6.70149C12.5875 6.70149 12.2233 6.59764 11.9293 6.38995C11.6352 6.18226 11.414 5.89979 11.2656 5.54256C11.1172 5.18255 11.043 4.77963 11.043 4.33378C11.043 3.88239 11.1172 3.47808 11.2656 3.12084C11.414 2.76361 11.6311 2.48253 11.9169 2.27761C12.2055 2.06991 12.5614 1.96606 12.9846 1.96606C13.405 1.96606 13.7691 2.06991 14.0769 2.27761C14.3875 2.48253 14.6279 2.76361 14.7983 3.12084C14.9687 3.47531 15.0539 3.87962 15.0539 4.33378C15.0539 4.7824 14.9701 5.18532 14.8024 5.54256C14.6348 5.89979 14.3985 6.18226 14.0934 6.38995C13.7884 6.59764 13.4311 6.70149 13.0217 6.70149ZM10.874 8.57074V2.09068H11.752V5.23932H11.8757V8.57074H10.874ZM12.8691 5.80425C13.1275 5.80425 13.3404 5.73918 13.5081 5.60902C13.6757 5.47887 13.7994 5.30302 13.8791 5.08148C13.9615 4.85717 14.0027 4.60793 14.0027 4.33378C14.0027 4.06239 13.9615 3.81593 13.8791 3.59439C13.7966 3.37008 13.6688 3.19284 13.4957 3.06269C13.3226 2.92977 13.1027 2.8633 12.8362 2.8633C12.5833 2.8633 12.3772 2.92561 12.2178 3.05023C12.0585 3.17207 11.9403 3.34377 11.8633 3.56531C11.7891 3.78408 11.752 4.04024 11.752 4.33378C11.752 4.62455 11.7891 4.88071 11.8633 5.10225C11.9403 5.32379 12.0598 5.49687 12.222 5.62148C12.3869 5.74333 12.6026 5.80425 12.8691 5.80425Z" fill="url(#paint9_linear_3308_12589)"/>
</mask>
<g mask="url(#mask0_3308_12589)">
<rect x="-1.03076" y="-0.692383" width="34.6947" height="10.0386" fill="url(#paint10_linear_3308_12589)"/>
</g>
<defs>
<linearGradient id="paint0_linear_3308_12589" x1="6.97607" y1="1.70759" x2="4.43975" y2="4.47645" gradientUnits="userSpaceOnUse">
<stop stop-color="#07111E"/>
<stop offset="1" stop-color="#84B8E8"/>
</linearGradient>
<linearGradient id="paint1_linear_3308_12589" x1="2.51074" y1="1.70759" x2="-0.0255838" y2="4.47645" gradientUnits="userSpaceOnUse">
<stop stop-color="#07111E"/>
<stop offset="1" stop-color="#84B8E8"/>
</linearGradient>
<linearGradient id="paint2_linear_3308_12589" x1="6.97607" y1="6.20759" x2="4.43975" y2="8.97645" gradientUnits="userSpaceOnUse">
<stop stop-color="#07111E"/>
<stop offset="1" stop-color="#84B8E8"/>
</linearGradient>
<linearGradient id="paint3_linear_3308_12589" x1="2.51074" y1="6.20759" x2="-0.0255838" y2="8.97645" gradientUnits="userSpaceOnUse">
<stop stop-color="#07111E"/>
<stop offset="1" stop-color="#84B8E8"/>
</linearGradient>
<linearGradient id="paint4_linear_3308_12589" x1="31.3683" y1="6.00022" x2="32.0035" y2="6.57324" gradientUnits="userSpaceOnUse">
<stop stop-color="#07111E"/>
<stop offset="1" stop-color="#84B8E8"/>
</linearGradient>
<linearGradient id="paint5_linear_3308_12589" x1="29.1351" y1="4.04238" x2="31.3943" y2="5.184" gradientUnits="userSpaceOnUse">
<stop stop-color="#07111E"/>
<stop offset="1" stop-color="#84B8E8"/>
</linearGradient>
<linearGradient id="paint6_linear_3308_12589" x1="24.5684" y1="3.98237" x2="27.3755" y2="6.24563" gradientUnits="userSpaceOnUse">
<stop stop-color="#07111E"/>
<stop offset="1" stop-color="#84B8E8"/>
</linearGradient>
<linearGradient id="paint7_linear_3308_12589" x1="19.515" y1="4.03925" x2="22.348" y2="6.17338" gradientUnits="userSpaceOnUse">
<stop stop-color="#07111E"/>
<stop offset="1" stop-color="#84B8E8"/>
</linearGradient>
<linearGradient id="paint8_linear_3308_12589" x1="16.4219" y1="3.14403" x2="17.522" y2="3.30672" gradientUnits="userSpaceOnUse">
<stop stop-color="#07111E"/>
<stop offset="1" stop-color="#84B8E8"/>
</linearGradient>
<linearGradient id="paint9_linear_3308_12589" x1="12.4601" y1="4.85762" x2="16.0139" y2="6.90203" gradientUnits="userSpaceOnUse">
<stop stop-color="#07111E"/>
<stop offset="1" stop-color="#84B8E8"/>
</linearGradient>
<linearGradient id="paint10_linear_3308_12589" x1="2.23369" y1="4.50961" x2="10.1548" y2="19.6035" gradientUnits="userSpaceOnUse">
<stop stop-color="#07111E"/>
<stop offset="1" stop-color="#84B8E8"/>
</linearGradient>
</defs>
</svg>
